<svg version="1.1" id="Layer_1" width="430" height="385" xmlns="http://www.w3.org/2000/svg" xmlns:xlink="http://www.w3.org/1999/xlink" x="0px" y="0px"
	 viewBox="0 0 430 385" style="enable-background:new 0 0 430 385;" xml:space="preserve">
<style type="text/css">
	.st0{fill:#FBB03B;}
	.st1{fill:#3F3F3F;}
	.st2{fill:#D83642;}
	.st3{fill:#39B54A;}
	.st4{fill:#FFFFFF;}
</style>
<polygon class="st0" points="411.5,30.2 395.5,30.2 395.5,31.2 403.5,31.2 403.5,385.2 404.5,385.2 404.5,31.2 411.5,31.2 "/>
<g>
	<path class="st0" d="M389.8,8.9c0-0.8,0.1-1.5,0.4-2.1c0.3-0.6,0.7-1.1,1.2-1.5c0.5-0.4,1.1-0.7,1.8-0.9c0.7-0.2,1.4-0.3,2.2-0.3
		c0.8,0,1.5,0.1,2.2,0.3c0.7,0.2,1.3,0.5,1.8,0.9c0.5,0.4,0.9,0.9,1.2,1.5c0.3,0.6,0.5,1.3,0.5,2.1c0,0.9-0.3,1.7-0.8,2.4
		s-1.2,1.1-2.1,1.4v0c1,0.3,1.8,0.8,2.4,1.5s0.8,1.6,0.8,2.7c0,0.8-0.2,1.5-0.5,2.2s-0.8,1.1-1.3,1.5c-0.6,0.4-1.2,0.7-1.9,0.9
		c-0.7,0.2-1.5,0.3-2.3,0.3c-0.8,0-1.5-0.1-2.3-0.3c-0.7-0.2-1.4-0.5-1.9-0.9c-0.6-0.4-1-0.9-1.3-1.5c-0.3-0.6-0.5-1.3-0.5-2.2
		c0-1.1,0.3-1.9,0.8-2.7c0.5-0.7,1.3-1.2,2.4-1.5v0c-0.9-0.3-1.6-0.7-2.1-1.4S389.8,9.8,389.8,8.9z M393.1,16.3
		c0,0.6,0.2,1.1,0.6,1.5c0.4,0.4,1,0.6,1.7,0.6c0.7,0,1.3-0.2,1.7-0.6c0.4-0.4,0.6-0.9,0.6-1.5c0-0.6-0.2-1.1-0.6-1.5
		c-0.4-0.4-1-0.6-1.7-0.6c-0.7,0-1.3,0.2-1.7,0.6C393.3,15.2,393.1,15.7,393.1,16.3z M393.4,9.4c0,0.5,0.2,1,0.6,1.3
		s0.9,0.6,1.5,0.6c0.6,0,1.1-0.2,1.5-0.6s0.6-0.8,0.6-1.3c0-0.5-0.2-1-0.6-1.3c-0.4-0.4-0.9-0.6-1.5-0.6c-0.6,0-1.1,0.2-1.5,0.6
		C393.6,8.4,393.4,8.9,393.4,9.4z"/>
	<path class="st0" d="M404.3,13c0-1,0.1-2,0.3-3.1c0.2-1,0.5-2,1-2.8c0.5-0.8,1.1-1.5,1.9-2.1c0.8-0.5,1.9-0.8,3.1-0.8
		c1.3,0,2.3,0.3,3.1,0.8c0.8,0.5,1.5,1.2,1.9,2.1c0.5,0.8,0.8,1.8,1,2.8c0.2,1,0.3,2.1,0.3,3.1s-0.1,2-0.3,3.1c-0.2,1-0.5,2-1,2.8
		c-0.5,0.8-1.1,1.5-1.9,2.1c-0.8,0.5-1.9,0.8-3.1,0.8c-1.3,0-2.3-0.3-3.1-0.8c-0.8-0.5-1.5-1.2-1.9-2.1s-0.8-1.8-1-2.8
		C404.4,15,404.3,14,404.3,13z M407.9,13c0,0.4,0,1,0.1,1.6s0.1,1.2,0.3,1.8c0.2,0.6,0.4,1.1,0.8,1.5c0.4,0.4,0.9,0.6,1.5,0.6
		c0.6,0,1.1-0.2,1.5-0.6c0.4-0.4,0.6-0.9,0.8-1.5s0.3-1.2,0.3-1.8s0.1-1.2,0.1-1.6c0-0.4,0-1-0.1-1.6c0-0.6-0.1-1.2-0.3-1.8
		s-0.4-1.1-0.8-1.5c-0.4-0.4-0.9-0.6-1.5-0.6c-0.7,0-1.2,0.2-1.5,0.6c-0.4,0.4-0.6,0.9-0.8,1.5c-0.2,0.6-0.3,1.2-0.3,1.8
		C407.9,12,407.9,12.6,407.9,13z"/>
</g>
<rect y="49.6" class="st1" width="299" height="28.4"/>
<rect y="78" class="st2" width="344.4" height="28.4"/>
<rect y="130.4" class="st1" width="385.5" height="28.4"/>
<rect y="158.7" class="st3" width="428.9" height="28.4"/>
<g>
	<path class="st4" d="M17.4,59.6L15,63.3l0,0c0.1-0.1,0.2-0.1,0.4-0.1c0.2,0,0.3,0,0.5,0c0.4,0,0.8,0.1,1.2,0.3
		c0.4,0.2,0.7,0.4,0.9,0.7c0.3,0.3,0.5,0.6,0.6,1c0.1,0.4,0.2,0.8,0.2,1.2c0,0.5-0.1,1-0.3,1.4c-0.2,0.4-0.4,0.8-0.7,1.1
		s-0.7,0.5-1.1,0.7c-0.4,0.2-0.9,0.2-1.4,0.2c-0.5,0-1-0.1-1.4-0.2c-0.4-0.2-0.8-0.4-1.1-0.7c-0.3-0.3-0.6-0.6-0.7-1.1
		s-0.3-0.9-0.3-1.4s0.1-1,0.3-1.4s0.4-0.9,0.7-1.3l2.5-4H17.4z M13.6,66.3c0,0.3,0,0.5,0.1,0.7c0.1,0.2,0.2,0.4,0.4,0.6
		c0.2,0.2,0.4,0.3,0.6,0.4c0.2,0.1,0.5,0.1,0.7,0.1c0.3,0,0.5,0,0.7-0.1c0.2-0.1,0.4-0.2,0.6-0.4s0.3-0.4,0.4-0.6
		c0.1-0.2,0.1-0.5,0.1-0.7s0-0.5-0.1-0.7c-0.1-0.2-0.2-0.4-0.4-0.6s-0.4-0.3-0.6-0.4c-0.2-0.1-0.5-0.1-0.7-0.1c-0.3,0-0.5,0-0.7,0.1
		c-0.2,0.1-0.4,0.2-0.6,0.4c-0.2,0.2-0.3,0.4-0.4,0.6C13.7,65.8,13.6,66,13.6,66.3z"/>
	<path class="st4" d="M20.6,64.5c0-0.8,0.1-1.5,0.2-2s0.3-1,0.5-1.4s0.4-0.7,0.7-0.9c0.3-0.2,0.5-0.4,0.8-0.5
		c0.3-0.1,0.5-0.2,0.8-0.2c0.2,0,0.5-0.1,0.7-0.1c0.2,0,0.4,0,0.7,0.1c0.2,0,0.5,0.1,0.8,0.2c0.3,0.1,0.5,0.3,0.8,0.5
		c0.3,0.2,0.5,0.5,0.7,0.9s0.4,0.8,0.5,1.4s0.2,1.2,0.2,2s-0.1,1.5-0.2,2c-0.1,0.6-0.3,1-0.5,1.4s-0.4,0.7-0.7,0.9s-0.5,0.4-0.8,0.5
		c-0.3,0.1-0.5,0.2-0.8,0.2c-0.2,0-0.5,0.1-0.7,0.1c-0.2,0-0.4,0-0.7-0.1c-0.2,0-0.5-0.1-0.8-0.2c-0.3-0.1-0.5-0.3-0.8-0.5
		c-0.3-0.2-0.5-0.5-0.7-0.9s-0.4-0.8-0.5-1.4C20.7,66,20.6,65.3,20.6,64.5z M22.3,64.5c0,0.3,0,0.7,0.1,1.1s0.1,0.8,0.3,1.2
		c0.1,0.4,0.3,0.7,0.6,0.9s0.6,0.4,1,0.4c0.4,0,0.8-0.1,1-0.4s0.4-0.6,0.6-0.9c0.1-0.4,0.2-0.7,0.3-1.2s0.1-0.8,0.1-1.1
		s0-0.7-0.1-1.1c0-0.4-0.1-0.8-0.3-1.2c-0.1-0.4-0.3-0.7-0.6-0.9c-0.3-0.3-0.6-0.4-1-0.4c-0.4,0-0.8,0.1-1,0.4
		c-0.3,0.3-0.4,0.6-0.6,0.9c-0.1,0.4-0.2,0.7-0.3,1.2C22.3,63.9,22.3,64.2,22.3,64.5z"/>
</g>
<g>
	<path class="st4" d="M17.4,87.6L15,91.3l0,0c0.1-0.1,0.2-0.1,0.4-0.1c0.2,0,0.3,0,0.5,0c0.4,0,0.8,0.1,1.2,0.3
		c0.4,0.2,0.7,0.4,0.9,0.7c0.3,0.3,0.5,0.6,0.6,1c0.1,0.4,0.2,0.8,0.2,1.2c0,0.5-0.1,1-0.3,1.4c-0.2,0.4-0.4,0.8-0.7,1.1
		s-0.7,0.5-1.1,0.7c-0.4,0.2-0.9,0.2-1.4,0.2c-0.5,0-1-0.1-1.4-0.2c-0.4-0.2-0.8-0.4-1.1-0.7c-0.3-0.3-0.6-0.6-0.7-1.1
		s-0.3-0.9-0.3-1.4s0.1-1,0.3-1.4s0.4-0.9,0.7-1.3l2.5-4H17.4z M13.6,94.3c0,0.3,0,0.5,0.1,0.7c0.1,0.2,0.2,0.4,0.4,0.6
		c0.2,0.2,0.4,0.3,0.6,0.4c0.2,0.1,0.5,0.1,0.7,0.1c0.3,0,0.5,0,0.7-0.1c0.2-0.1,0.4-0.2,0.6-0.4s0.3-0.4,0.4-0.6
		c0.1-0.2,0.1-0.5,0.1-0.7s0-0.5-0.1-0.7c-0.1-0.2-0.2-0.4-0.4-0.6s-0.4-0.3-0.6-0.4c-0.2-0.1-0.5-0.1-0.7-0.1c-0.3,0-0.5,0-0.7,0.1
		c-0.2,0.1-0.4,0.2-0.6,0.4c-0.2,0.2-0.3,0.4-0.4,0.6C13.7,93.8,13.6,94,13.6,94.3z"/>
	<path class="st4" d="M27.2,89.1h-4l0,2c0.1,0,0.3-0.1,0.5-0.1c0.2,0,0.4,0,0.6,0c0.5,0,0.9,0.1,1.3,0.2c0.4,0.2,0.8,0.4,1,0.7
		c0.3,0.3,0.5,0.6,0.7,1s0.2,0.9,0.2,1.4c0,0.5-0.1,1-0.3,1.4c-0.2,0.4-0.4,0.8-0.8,1.1s-0.7,0.5-1.1,0.7c-0.4,0.2-0.9,0.2-1.4,0.2
		c-0.8,0-1.5-0.2-2-0.6c-0.6-0.4-0.9-0.9-1.2-1.7l1.8-0.5c0.1,0.4,0.3,0.6,0.6,0.8c0.3,0.2,0.6,0.3,1,0.3c0.3,0,0.5,0,0.7-0.1
		s0.4-0.2,0.5-0.4s0.3-0.3,0.4-0.5c0.1-0.2,0.1-0.4,0.1-0.7c0-0.3-0.1-0.6-0.2-0.9s-0.3-0.4-0.5-0.6c-0.2-0.2-0.5-0.3-0.7-0.3
		c-0.3-0.1-0.6-0.1-0.9-0.1c-0.4,0-0.7,0-1.1,0.1c-0.4,0.1-0.7,0.2-1,0.3l0.1-5.3h5.6V89.1z"/>
</g>
<g>
	<path class="st4" d="M11.8,140.6h6.7v1.5l-4,8.4h-2l4-8.3h-4.8V140.6z"/>
	<path class="st4" d="M27.2,142.1h-4l0,2c0.1,0,0.3-0.1,0.5-0.1c0.2,0,0.4,0,0.6,0c0.5,0,0.9,0.1,1.3,0.2c0.4,0.2,0.8,0.4,1,0.7
		c0.3,0.3,0.5,0.6,0.7,1s0.2,0.9,0.2,1.4c0,0.5-0.1,1-0.3,1.4c-0.2,0.4-0.4,0.8-0.8,1.1s-0.7,0.5-1.1,0.7c-0.4,0.2-0.9,0.2-1.4,0.2
		c-0.8,0-1.5-0.2-2-0.6c-0.6-0.4-0.9-0.9-1.2-1.7l1.8-0.5c0.1,0.4,0.3,0.6,0.6,0.8c0.3,0.2,0.6,0.3,1,0.3c0.3,0,0.5,0,0.7-0.1
		s0.4-0.2,0.5-0.4s0.3-0.3,0.4-0.5c0.1-0.2,0.1-0.4,0.1-0.7c0-0.3-0.1-0.6-0.2-0.9s-0.3-0.4-0.5-0.6c-0.2-0.2-0.5-0.3-0.7-0.3
		c-0.3-0.1-0.6-0.1-0.9-0.1c-0.4,0-0.7,0-1.1,0.1c-0.4,0.1-0.7,0.2-1,0.3l0.1-5.3h5.6V142.1z"/>
</g>
<g>
	<path class="st4" d="M13.4,178.5l2.4-3.7l0,0c-0.1,0.1-0.2,0.1-0.4,0.1c-0.2,0-0.3,0-0.5,0c-0.4,0-0.8-0.1-1.2-0.3
		c-0.4-0.2-0.7-0.4-0.9-0.7c-0.3-0.3-0.5-0.6-0.6-1s-0.2-0.8-0.2-1.2c0-0.5,0.1-1,0.3-1.4c0.2-0.4,0.4-0.8,0.7-1.1
		c0.3-0.3,0.7-0.5,1.1-0.7c0.4-0.2,0.9-0.2,1.4-0.2c0.5,0,1,0.1,1.4,0.2c0.4,0.2,0.8,0.4,1.1,0.7c0.3,0.3,0.6,0.6,0.7,1.1
		s0.3,0.9,0.3,1.4s-0.1,1-0.3,1.4s-0.4,0.9-0.7,1.3l-2.5,4H13.4z M17.1,171.8c0-0.3,0-0.5-0.1-0.7c-0.1-0.2-0.2-0.4-0.4-0.6
		s-0.4-0.3-0.6-0.4c-0.2-0.1-0.5-0.1-0.7-0.1s-0.5,0-0.7,0.1c-0.2,0.1-0.4,0.2-0.6,0.4c-0.2,0.2-0.3,0.4-0.4,0.6
		c-0.1,0.2-0.1,0.5-0.1,0.7s0,0.5,0.1,0.7c0.1,0.2,0.2,0.4,0.4,0.6c0.2,0.2,0.4,0.3,0.6,0.4c0.2,0.1,0.5,0.1,0.7,0.1s0.5,0,0.7-0.1
		c0.2-0.1,0.4-0.2,0.6-0.4c0.2-0.2,0.3-0.4,0.4-0.6C17.1,172.3,17.1,172.1,17.1,171.8z"/>
	<path class="st4" d="M20.6,173.5c0-0.8,0.1-1.5,0.2-2s0.3-1,0.5-1.4s0.4-0.7,0.7-0.9c0.3-0.2,0.5-0.4,0.8-0.5
		c0.3-0.1,0.5-0.2,0.8-0.2c0.2,0,0.5-0.1,0.7-0.1c0.2,0,0.4,0,0.7,0.1c0.2,0,0.5,0.1,0.8,0.2c0.3,0.1,0.5,0.3,0.8,0.5
		c0.3,0.2,0.5,0.5,0.7,0.9s0.4,0.8,0.5,1.4s0.2,1.2,0.2,2s-0.1,1.5-0.2,2c-0.1,0.6-0.3,1-0.5,1.4s-0.4,0.7-0.7,0.9s-0.5,0.4-0.8,0.5
		c-0.3,0.1-0.5,0.2-0.8,0.2c-0.2,0-0.5,0.1-0.7,0.1c-0.2,0-0.4,0-0.7-0.1c-0.2,0-0.5-0.1-0.8-0.2c-0.3-0.1-0.5-0.3-0.8-0.5
		c-0.3-0.2-0.5-0.5-0.7-0.9s-0.4-0.8-0.5-1.4C20.7,175,20.6,174.3,20.6,173.5z M22.3,173.5c0,0.3,0,0.7,0.1,1.1s0.1,0.8,0.3,1.2
		c0.1,0.4,0.3,0.7,0.6,0.9s0.6,0.4,1,0.4c0.4,0,0.8-0.1,1-0.4s0.4-0.6,0.6-0.9c0.1-0.4,0.2-0.7,0.3-1.2s0.1-0.8,0.1-1.1
		s0-0.7-0.1-1.1c0-0.4-0.1-0.8-0.3-1.2c-0.1-0.4-0.3-0.7-0.6-0.9c-0.3-0.3-0.6-0.4-1-0.4c-0.4,0-0.8,0.1-1,0.4
		c-0.3,0.3-0.4,0.6-0.6,0.9c-0.1,0.4-0.2,0.7-0.3,1.2C22.3,172.9,22.3,173.2,22.3,173.5z"/>
</g>
</svg>
