<?xml version="1.0" encoding="utf-8"?><svg width="164" height="110" viewBox="0 0 164 110" xmlns="http://www.w3.org/2000/svg" xmlns:xlink="http://www.w3.org/1999/xlink"><svg viewBox="0 0 32 27.7" width="32" height="27.7" id="db-logo" y="82"><g fill="#cd2c28"><path d="M24.4 6.7c-1.2 0-2.4.3-3.4.8V0h-4.2v14.3c0 4.2 3.4 7.6 7.6 7.6 4.2 0 7.6-3.4 7.6-7.6 0-4.2-3.4-7.6-7.6-7.6m0 11c-1.9 0-3.4-1.5-3.4-3.4s1.5-3.4 3.4-3.4 3.4 1.5 3.4 3.4-1.5 3.4-3.4 3.4"/><path d="M14.9 18.1c0-.1-.1-.2-.1-.3-.2-.8-.3-1.6-.3-2.4V5.7h-4.2V13c-.8-.3-1.7-.5-2.7-.5-4.2 0-7.6 3.4-7.6 7.6 0 4.2 3.4 7.6 7.6 7.6 2.6 0 4.9-1.3 6.2-3.3 1.3 1.4 2.9 2.5 4.7 3.3l2.1-3.7c-2.7-.9-4.9-3.2-5.7-5.9m-7.3 5.4c-1.9 0-3.4-1.5-3.4-3.4s1.5-3.4 3.4-3.4 3.4 1.5 3.4 3.4-1.5 3.4-3.4 3.4"/></g></svg><svg viewBox="0 0 21.61 21.08" width="22" height="22" id="git-dark" x="32" y="82"><path d="M10.81 0a10.81 10.81 0 0 0-3.42 21.06.54.54 0 0 0 .74-.52V18.7c-3 .65-3.64-1.45-3.64-1.45a2.86 2.86 0 0 0-1.2-1.58c-1-.67.07-.66.07-.66a2.27 2.27 0 0 1 1.66 1.11 2.3 2.3 0 0 0 3.14.9 2.31 2.31 0 0 1 .69-1.44c-2.4-.27-4.92-1.2-4.92-5.34a4.18 4.18 0 0 1 1.11-2.9 3.89 3.89 0 0 1 .11-2.86s.91-.29 3 1.11a10.24 10.24 0 0 1 5.41 0c2.06-1.4 3-1.11 3-1.11a3.88 3.88 0 0 1 .11 2.86 4.17 4.17 0 0 1 1.11 2.9c0 4.15-2.53 5.06-4.93 5.33a2.58 2.58 0 0 1 .73 2v3a.54.54 0 0 0 .74.52A10.81 10.81 0 0 0 10.81 0" fill="#1e1e1e" fill-rule="evenodd"/></svg><svg viewBox="0 0 21.61 21.08" width="22" height="22" id="git-white" x="54" y="82"><path d="M10.81 0a10.81 10.81 0 0 0-3.42 21.06.54.54 0 0 0 .74-.52V18.7c-3 .65-3.64-1.45-3.64-1.45a2.86 2.86 0 0 0-1.2-1.58c-1-.67.07-.66.07-.66a2.27 2.27 0 0 1 1.66 1.11 2.3 2.3 0 0 0 3.14.9 2.31 2.31 0 0 1 .69-1.44c-2.4-.27-4.92-1.2-4.92-5.34a4.18 4.18 0 0 1 1.11-2.9 3.89 3.89 0 0 1 .11-2.86s.91-.29 3 1.11a10.24 10.24 0 0 1 5.41 0c2.06-1.4 3-1.11 3-1.11a3.88 3.88 0 0 1 .11 2.86 4.17 4.17 0 0 1 1.11 2.9c0 4.15-2.53 5.06-4.93 5.33a2.58 2.58 0 0 1 .73 2v3a.54.54 0 0 0 .74.52A10.81 10.81 0 0 0 10.81 0" fill="#fff" fill-rule="evenodd"/></svg><svg id="icon-flame" viewBox="0 0 13 14" width="13" height="14" x="76" y="82"><style>.dst0{fill:#fbb03b}</style><path class="dst0" d="M12 13.8c0 .1-.1.2-.2.2H1.2c-.1 0-.2-.1-.2-.2v-.5c0-.2.1-.3.2-.3h10.5c.1 0 .2.1.2.2v.6zm-5.5-3.5c0 .5.3 1.3.5 1.8-2.2-1-4-2.4-4-5 0-3 3.5-3.3 3.5-5.2C6.5 1.2 6.2.5 6 0c2.2 1 4 2.4 4 5 0 3-3.5 3.3-3.5 5.3z"/></svg><svg viewBox="0 0 82 82" width="82" height="82" id="perf-tool"><rect x="1" y="1" width="80" height="80" rx="9.23" fill="none" stroke="#fbb03b" stroke-width="2" stroke-miterlimit="10"/><path fill="#fbb03b" d="M67.1 45.89v-10h-25v-6h10v-10h-10v-8h-2v8h-26v10h26v6h-26v10h26v6h-26v10h26v10h2v-10h17v-10h-17v-6h25"/></svg><svg viewBox="0 0 82.48 82.48" width="82" height="82" id="styleguide" x="82"><rect x="1" y="1" width="80.48" height="80.48" rx="10" fill="none" stroke="#1a1a1a" stroke-width="2" stroke-miterlimit="10"/><g fill="#1a1a1a" transform="translate(-129 -2629.18)"><path d="M176.21 2680.94a28.42 28.42 0 0 0 12.53-7L164 2660.33a30.11 30.11 0 0 0-12.28 7.1z"/><path d="M179 2682.48a29.24 29.24 0 0 1-29.45-7.27v13.91a40.22 40.22 0 0 0 41.42 0v-13.91a29.31 29.31 0 0 1-11.97 7.27zM170.24 2646.49a40.07 40.07 0 0 0-20.71 5.74v13.91a29.22 29.22 0 0 1 41.42 0v-13.91a40.07 40.07 0 0 0-20.71-5.74"/></g></svg></svg>
