<svg width="458" height="204" version="1.1" id="Layer_1" xmlns="http://www.w3.org/2000/svg" xmlns:xlink="http://www.w3.org/1999/xlink" x="0px" y="0px"
	 viewBox="0 0 458 204" style="enable-background:new 0 0 458 204;" xml:space="preserve">
<style type="text/css">
	.st0{fill:#EB2026;}
	.st1{fill:#F05A26;}
	.st2{fill:#FAAF3A;}
	.st3{fill:#29A9E1;}
	.st4{fill:#39B44A;}
	.st5{fill:#FFFFFF;}
</style>
<g>
	<rect y="1" class="st0" width="76.8" height="203"/>
	<rect x="90.3" y="1" class="st1" width="76.8" height="203"/>
	<rect x="180.6" y="1" class="st2" width="76.8" height="203"/>
	<rect x="270.8" y="1" class="st3" width="76.8" height="203"/>
	<rect x="361.1" y="1" class="st4" width="76.8" height="203"/>
	<g>
		<path class="st5" d="M14.5,22h-0.9v-1h1.1l0.2-1.4H14v-1h1l0.3-2.3h1.1l-0.3,2.3h1.1l0.3-2.3h1.1l-0.3,2.3h0.9v1h-1.1L18,21h0.9v1
			h-1.1l-0.3,2.3h-1.1l0.3-2.3h-1.1l-0.3,2.3h-1.1L14.5,22z M17.1,19.5H16L15.8,21h1.1L17.1,19.5z"/>
		<path class="st5" d="M22.7,19.4h0.5c0.2,0,0.3,0,0.5,0s0.3-0.1,0.4-0.1s0.2-0.2,0.3-0.3c0.1-0.1,0.1-0.3,0.1-0.5s-0.1-0.4-0.3-0.6
			c-0.2-0.2-0.4-0.2-0.7-0.2c-0.3,0-0.5,0.1-0.7,0.2s-0.3,0.3-0.3,0.5L20.7,18c0.1-0.3,0.2-0.6,0.4-0.9s0.4-0.4,0.6-0.6
			c0.2-0.1,0.5-0.3,0.8-0.3s0.6-0.1,1-0.1s0.7,0,1,0.1s0.6,0.2,0.9,0.4c0.2,0.2,0.4,0.4,0.6,0.7c0.1,0.3,0.2,0.6,0.2,1
			s-0.1,0.8-0.3,1.1c-0.2,0.3-0.6,0.5-1,0.6l0,0c0.2,0,0.5,0.1,0.6,0.2s0.3,0.2,0.5,0.4c0.1,0.2,0.2,0.4,0.3,0.6s0.1,0.4,0.1,0.7
			c0,0.4-0.1,0.7-0.2,1c-0.2,0.3-0.4,0.5-0.6,0.7c-0.3,0.2-0.6,0.3-0.9,0.4s-0.7,0.1-1.1,0.1c-0.7,0-1.3-0.2-1.8-0.5s-0.9-0.8-1-1.6
			l1.8-0.4c0.1,0.3,0.2,0.5,0.4,0.7c0.2,0.2,0.5,0.2,0.8,0.2c0.4,0,0.6-0.1,0.8-0.3s0.3-0.4,0.3-0.7c0-0.2,0-0.4-0.1-0.5
			s-0.2-0.2-0.4-0.3s-0.3-0.1-0.5-0.1s-0.4,0-0.6,0h-0.4v-1.2H22.7z"/>
		<path class="st5" d="M28,22.4l3.1-2.8c0.2-0.1,0.3-0.3,0.5-0.5s0.2-0.4,0.2-0.6c0-0.3-0.1-0.5-0.3-0.6s-0.4-0.2-0.7-0.2
			c-0.3,0-0.6,0.1-0.7,0.3s-0.3,0.4-0.3,0.7l-1.7-0.1c0-0.4,0.1-0.8,0.3-1.1s0.3-0.6,0.6-0.8c0.2-0.2,0.5-0.4,0.9-0.5
			c0.3-0.1,0.7-0.2,1.1-0.2s0.7,0.1,1,0.2s0.6,0.3,0.8,0.4c0.2,0.2,0.4,0.4,0.5,0.7c0.1,0.3,0.2,0.6,0.2,1c0,0.3,0,0.5-0.1,0.7
			s-0.1,0.4-0.2,0.6c-0.1,0.2-0.2,0.3-0.3,0.5c-0.1,0.1-0.3,0.3-0.4,0.4l-2.4,2.1h3.5v1.5H28V22.4z"/>
		<path class="st5" d="M38.4,22.6H35v-1.4l3.2-4.9H40v4.9h1v1.4h-1v1.6h-1.6V22.6z M38.4,18.5L38.4,18.5l-1.8,2.7h1.8V18.5z"/>
		<path class="st5" d="M47.7,17.8h-3.2V19c0.2-0.1,0.4-0.1,0.7-0.1c0.4,0,0.8,0.1,1.1,0.2s0.6,0.3,0.9,0.5c0.2,0.2,0.4,0.5,0.6,0.8
			s0.2,0.7,0.2,1.1s-0.1,0.8-0.2,1.2s-0.4,0.6-0.6,0.9c-0.3,0.2-0.6,0.4-1,0.6c-0.4,0.1-0.8,0.2-1.2,0.2c-0.7,0-1.3-0.2-1.7-0.5
			c-0.5-0.3-0.8-0.8-1-1.5l1.8-0.4c0,0.3,0.2,0.5,0.4,0.7s0.4,0.3,0.7,0.3c0.4,0,0.6-0.1,0.9-0.3c0.2-0.2,0.3-0.5,0.3-0.9
			c0-0.3-0.1-0.5-0.2-0.6c-0.1-0.2-0.2-0.3-0.4-0.4s-0.4-0.2-0.6-0.2c-0.2,0-0.4-0.1-0.7-0.1s-0.6,0-0.8,0.1
			c-0.3,0.1-0.6,0.1-0.8,0.2l0.1-4.4h4.8L47.7,17.8L47.7,17.8z"/>
		<path class="st5" d="M52.3,19.1c0.1,0,0.2,0,0.3-0.1c0.1,0,0.2,0,0.3,0c0.4,0,0.7,0.1,1,0.2s0.6,0.3,0.8,0.5s0.4,0.5,0.5,0.8
			s0.2,0.7,0.2,1c0,0.4-0.1,0.8-0.2,1.1s-0.4,0.6-0.6,0.9c-0.3,0.2-0.6,0.4-0.9,0.6c-0.4,0.1-0.8,0.2-1.2,0.2s-0.8-0.1-1.2-0.2
			s-0.7-0.3-0.9-0.6c-0.3-0.2-0.5-0.5-0.6-0.9s-0.2-0.7-0.2-1.1c0-0.3,0-0.5,0.1-0.8c0.1-0.2,0.1-0.5,0.2-0.7s0.2-0.4,0.3-0.6
			s0.2-0.4,0.4-0.6l1.7-2.7h2.1L52.3,19.1z M53.7,21.6c0-0.4-0.1-0.7-0.4-0.9c-0.2-0.2-0.5-0.4-0.9-0.4s-0.7,0.1-0.9,0.4
			c-0.2,0.2-0.4,0.5-0.4,0.9s0.1,0.7,0.4,0.9c0.2,0.2,0.5,0.4,0.9,0.4s0.7-0.1,0.9-0.4S53.7,21.9,53.7,21.6z"/>
		<path class="st5" d="M60.6,17.8h-3.9v-1.5h5.8v1.5l-3.2,6.5h-2L60.6,17.8z"/>
	</g>
	<g>
		<path class="st5" d="M105.3,22h-0.9v-1h1.1l0.2-1.4h-0.9v-1h1.1l0.3-2.3h1.1l-0.3,2.3h1.1l0.3-2.3h1.1l-0.3,2.3h0.9v1H109
			l-0.2,1.4h0.9v1h-1.1l-0.3,2.3h-1.1l0.3-2.3h-1.1l-0.3,2.3H105L105.3,22z M107.8,19.5h-1.1l-0.2,1.4h1.1L107.8,19.5z"/>
		<path class="st5" d="M113.4,19.4h0.5c0.2,0,0.3,0,0.5,0s0.3-0.1,0.4-0.1s0.2-0.2,0.3-0.3c0.1-0.1,0.1-0.3,0.1-0.5
			s-0.1-0.4-0.3-0.6c-0.2-0.2-0.4-0.2-0.7-0.2c-0.3,0-0.5,0.1-0.7,0.2s-0.3,0.3-0.3,0.5l-1.9-0.4c0.1-0.3,0.2-0.6,0.4-0.9
			s0.4-0.4,0.6-0.6c0.2-0.1,0.5-0.3,0.8-0.3s0.6-0.1,1-0.1s0.7,0,1,0.1s0.6,0.2,0.9,0.4c0.2,0.2,0.4,0.4,0.6,0.7
			c0.1,0.3,0.2,0.6,0.2,1s-0.1,0.8-0.3,1.1c-0.2,0.3-0.6,0.5-1,0.6l0,0c0.2,0,0.5,0.1,0.6,0.2s0.3,0.2,0.5,0.4
			c0.1,0.2,0.2,0.4,0.3,0.6s0.1,0.4,0.1,0.7c0,0.4-0.1,0.7-0.2,1c-0.2,0.3-0.4,0.5-0.6,0.7c-0.3,0.2-0.6,0.3-0.9,0.4
			s-0.7,0.1-1.1,0.1c-0.7,0-1.3-0.2-1.8-0.5s-0.9-0.8-1-1.6l1.8-0.4c0.1,0.3,0.2,0.5,0.4,0.7c0.2,0.2,0.5,0.2,0.8,0.2
			c0.4,0,0.6-0.1,0.8-0.3s0.3-0.4,0.3-0.7c0-0.2,0-0.4-0.1-0.5s-0.2-0.2-0.4-0.3s-0.3-0.1-0.5-0.1s-0.4,0-0.6,0h-0.4v-1.2H113.4z"/>
		<path class="st5" d="M118.8,22.4l3.1-2.8c0.2-0.1,0.3-0.3,0.5-0.5s0.2-0.4,0.2-0.6c0-0.3-0.1-0.5-0.3-0.6s-0.4-0.2-0.7-0.2
			c-0.3,0-0.6,0.1-0.7,0.3s-0.3,0.4-0.3,0.7l-1.7-0.1c0-0.4,0.1-0.8,0.3-1.1s0.3-0.6,0.6-0.8c0.2-0.2,0.5-0.4,0.9-0.5
			c0.3-0.1,0.7-0.2,1.1-0.2s0.7,0.1,1,0.2s0.6,0.3,0.8,0.4c0.2,0.2,0.4,0.4,0.5,0.7c0.1,0.3,0.2,0.6,0.2,1c0,0.3,0,0.5-0.1,0.7
			s-0.1,0.4-0.2,0.6s-0.2,0.3-0.3,0.5c-0.1,0.1-0.3,0.3-0.4,0.4l-2.4,2.1h3.5v1.5h-5.5L118.8,22.4L118.8,22.4z"/>
		<path class="st5" d="M129.1,22.6h-3.5v-1.4l3.2-4.9h1.8v4.9h1v1.4h-1v1.6H129v-1.6H129.1z M129.1,18.5L129.1,18.5l-1.8,2.7h1.8
			V18.5z"/>
		<path class="st5" d="M138.4,17.8h-3.2V19c0.2-0.1,0.4-0.1,0.7-0.1c0.4,0,0.8,0.1,1.1,0.2s0.6,0.3,0.9,0.5c0.2,0.2,0.4,0.5,0.6,0.8
			s0.2,0.7,0.2,1.1s-0.1,0.8-0.2,1.2s-0.4,0.6-0.6,0.9c-0.3,0.2-0.6,0.4-1,0.6c-0.4,0.1-0.8,0.2-1.2,0.2c-0.7,0-1.3-0.2-1.7-0.5
			c-0.5-0.3-0.8-0.8-1-1.5l1.8-0.4c0,0.3,0.2,0.5,0.4,0.7s0.4,0.3,0.7,0.3c0.4,0,0.6-0.1,0.9-0.3c0.2-0.2,0.3-0.5,0.3-0.9
			c0-0.3-0.1-0.5-0.2-0.6c-0.1-0.2-0.2-0.3-0.4-0.4s-0.4-0.2-0.6-0.2c-0.2,0-0.4-0.1-0.7-0.1s-0.6,0-0.8,0.1
			c-0.3,0.1-0.6,0.1-0.8,0.2l0.1-4.4h4.8v1.4H138.4z"/>
		<path class="st5" d="M143,19.1c0.1,0,0.2,0,0.3-0.1c0.1,0,0.2,0,0.3,0c0.4,0,0.7,0.1,1,0.2s0.6,0.3,0.8,0.5s0.4,0.5,0.5,0.8
			s0.2,0.7,0.2,1c0,0.4-0.1,0.8-0.2,1.1s-0.4,0.6-0.6,0.9c-0.3,0.2-0.6,0.4-0.9,0.6c-0.4,0.1-0.8,0.2-1.2,0.2s-0.8-0.1-1.2-0.2
			s-0.7-0.3-0.9-0.6c-0.3-0.2-0.5-0.5-0.6-0.9s-0.2-0.7-0.2-1.1c0-0.3,0-0.5,0.1-0.8c0.1-0.2,0.1-0.5,0.2-0.7s0.2-0.4,0.3-0.6
			s0.2-0.4,0.4-0.6l1.7-2.7h2.1L143,19.1z M144.4,21.6c0-0.4-0.1-0.7-0.4-0.9c-0.2-0.2-0.5-0.4-0.9-0.4s-0.7,0.1-0.9,0.4
			c-0.2,0.2-0.4,0.5-0.4,0.9s0.1,0.7,0.4,0.9c0.2,0.2,0.5,0.4,0.9,0.4s0.7-0.1,0.9-0.4C144.3,22.2,144.4,21.9,144.4,21.6z"/>
		<path class="st5" d="M151.4,17.8h-3.9v-1.5h5.8v1.5l-3.2,6.5h-2L151.4,17.8z"/>
	</g>
	<g>
		<path class="st5" d="M195.5,22h-0.9v-1h1.1l0.2-1.4H195v-1h1.1l0.3-2.3h1.1l-0.3,2.3h1.1l0.3-2.3h1.1l-0.3,2.3h0.9v1h-1.1L199,21
			h0.9v1h-1.1l-0.3,2.3h-1.1l0.3-2.3h-1.1l-0.3,2.3h-1.1L195.5,22z M198.1,19.5H197l-0.2,1.4h1.1L198.1,19.5z"/>
		<path class="st5" d="M203.7,19.4h0.5c0.2,0,0.3,0,0.5,0s0.3-0.1,0.4-0.1s0.2-0.2,0.3-0.3c0.1-0.1,0.1-0.3,0.1-0.5
			s-0.1-0.4-0.3-0.6s-0.4-0.2-0.7-0.2s-0.5,0.1-0.7,0.2s-0.3,0.3-0.3,0.5l-1.9-0.4c0.1-0.3,0.2-0.6,0.4-0.9s0.4-0.4,0.6-0.6
			c0.2-0.1,0.5-0.3,0.8-0.3s0.6-0.1,1-0.1s0.7,0,1,0.1s0.6,0.2,0.9,0.4c0.2,0.2,0.4,0.4,0.6,0.7c0.1,0.3,0.2,0.6,0.2,1
			s-0.1,0.8-0.3,1.1c-0.2,0.3-0.6,0.5-1,0.6l0,0c0.2,0,0.5,0.1,0.6,0.2s0.3,0.2,0.5,0.4c0.1,0.2,0.2,0.4,0.3,0.6s0.1,0.4,0.1,0.7
			c0,0.4-0.1,0.7-0.2,1c-0.2,0.3-0.4,0.5-0.6,0.7c-0.3,0.2-0.6,0.3-0.9,0.4c-0.3,0.1-0.7,0.1-1.1,0.1c-0.7,0-1.3-0.2-1.8-0.5
			s-0.9-0.8-1-1.6l1.8-0.4c0.1,0.3,0.2,0.5,0.4,0.7s0.5,0.2,0.8,0.2c0.4,0,0.6-0.1,0.8-0.3s0.3-0.4,0.3-0.7c0-0.2,0-0.4-0.1-0.5
			s-0.2-0.2-0.4-0.3s-0.3-0.1-0.5-0.1s-0.4,0-0.6,0h-0.4v-1.2H203.7z"/>
		<path class="st5" d="M209,22.4l3.1-2.8c0.2-0.1,0.3-0.3,0.5-0.5s0.2-0.4,0.2-0.6c0-0.3-0.1-0.5-0.3-0.6s-0.4-0.2-0.7-0.2
			s-0.6,0.1-0.7,0.3s-0.3,0.4-0.3,0.7l-1.7-0.1c0-0.4,0.1-0.8,0.3-1.1s0.3-0.6,0.6-0.8c0.2-0.2,0.5-0.4,0.9-0.5
			c0.3-0.1,0.7-0.2,1.1-0.2c0.4,0,0.7,0.1,1,0.2s0.6,0.3,0.8,0.4c0.2,0.2,0.4,0.4,0.5,0.7c0.1,0.3,0.2,0.6,0.2,1
			c0,0.3,0,0.5-0.1,0.7s-0.1,0.4-0.2,0.6c-0.1,0.2-0.2,0.3-0.3,0.5c-0.1,0.1-0.3,0.3-0.4,0.4l-2.4,2.1h3.5v1.5H209V22.4z"/>
		<path class="st5" d="M219.4,22.6H216v-1.4l3.2-4.9h1.8v4.9h1v1.4h-1v1.6h-1.6V22.6z M219.4,18.5L219.4,18.5l-1.8,2.7h1.8V18.5z"/>
		<path class="st5" d="M228.7,17.8h-3.2V19c0.2-0.1,0.4-0.1,0.7-0.1c0.4,0,0.8,0.1,1.1,0.2s0.6,0.3,0.9,0.5c0.2,0.2,0.4,0.5,0.6,0.8
			s0.2,0.7,0.2,1.1s-0.1,0.8-0.2,1.2s-0.4,0.6-0.6,0.9c-0.3,0.2-0.6,0.4-1,0.6c-0.4,0.1-0.8,0.2-1.2,0.2c-0.7,0-1.3-0.2-1.7-0.5
			c-0.5-0.3-0.8-0.8-1-1.5l1.8-0.4c0,0.3,0.2,0.5,0.4,0.7s0.4,0.3,0.7,0.3c0.4,0,0.6-0.1,0.9-0.3c0.2-0.2,0.3-0.5,0.3-0.9
			c0-0.3-0.1-0.5-0.2-0.6c-0.1-0.2-0.2-0.3-0.4-0.4s-0.4-0.2-0.6-0.2c-0.2,0-0.4-0.1-0.7-0.1s-0.6,0-0.8,0.1
			c-0.3,0.1-0.6,0.1-0.8,0.2l0.1-4.4h4.8v1.4H228.7z"/>
		<path class="st5" d="M233.3,19.1c0.1,0,0.2,0,0.3-0.1c0.1,0,0.2,0,0.3,0c0.4,0,0.7,0.1,1,0.2s0.6,0.3,0.8,0.5s0.4,0.5,0.5,0.8
			s0.2,0.7,0.2,1c0,0.4-0.1,0.8-0.2,1.1s-0.4,0.6-0.6,0.9c-0.3,0.2-0.6,0.4-0.9,0.6c-0.4,0.1-0.8,0.2-1.2,0.2s-0.8-0.1-1.2-0.2
			s-0.7-0.3-0.9-0.6c-0.3-0.2-0.5-0.5-0.6-0.9s-0.2-0.7-0.2-1.1c0-0.3,0-0.5,0.1-0.8c0.1-0.2,0.1-0.5,0.2-0.7s0.2-0.4,0.3-0.6
			s0.2-0.4,0.4-0.6l1.7-2.7h2.1L233.3,19.1z M234.7,21.6c0-0.4-0.1-0.7-0.4-0.9c-0.2-0.2-0.5-0.4-0.9-0.4s-0.7,0.1-0.9,0.4
			c-0.2,0.2-0.4,0.5-0.4,0.9s0.1,0.7,0.4,0.9c0.2,0.2,0.5,0.4,0.9,0.4s0.7-0.1,0.9-0.4S234.7,21.9,234.7,21.6z"/>
		<path class="st5" d="M241.6,17.8h-3.9v-1.5h5.8v1.5l-3.2,6.5h-2L241.6,17.8z"/>
	</g>
	<g>
		<path class="st5" d="M285.8,22h-0.9v-1h1.1l0.2-1.4h-0.9v-1h1.1l0.3-2.3h1.1l-0.3,2.3h1.1l0.3-2.3h1.1l-0.3,2.3h0.9v1h-1.1
			l-0.2,1.4h0.9v1h-1.1l-0.3,2.3h-1.1L288,22h-1.1l-0.3,2.3h-1.1L285.8,22z M288.3,19.5h-1.1L287,21h1.1L288.3,19.5z"/>
		<path class="st5" d="M294,19.4h0.5c0.2,0,0.3,0,0.5,0s0.3-0.1,0.4-0.1s0.2-0.2,0.3-0.3c0.1-0.1,0.1-0.3,0.1-0.5s-0.1-0.4-0.3-0.6
			c-0.2-0.2-0.4-0.2-0.7-0.2c-0.3,0-0.5,0.1-0.7,0.2s-0.3,0.3-0.3,0.5L292,18c0.1-0.3,0.2-0.6,0.4-0.9s0.4-0.4,0.6-0.6
			c0.2-0.1,0.5-0.3,0.8-0.3s0.6-0.1,1-0.1s0.7,0,1,0.1s0.6,0.2,0.9,0.4c0.2,0.2,0.4,0.4,0.6,0.7c0.1,0.3,0.2,0.6,0.2,1
			s-0.1,0.8-0.3,1.1c-0.2,0.3-0.6,0.5-1,0.6l0,0c0.2,0,0.5,0.1,0.6,0.2s0.3,0.2,0.5,0.4c0.1,0.2,0.2,0.4,0.3,0.6s0.1,0.4,0.1,0.7
			c0,0.4-0.1,0.7-0.2,1c-0.2,0.3-0.4,0.5-0.6,0.7c-0.3,0.2-0.6,0.3-0.9,0.4s-0.7,0.1-1.1,0.1c-0.7,0-1.3-0.2-1.8-0.5s-0.9-0.8-1-1.6
			l1.8-0.4c0.1,0.3,0.2,0.5,0.4,0.7c0.2,0.2,0.5,0.2,0.8,0.2c0.4,0,0.6-0.1,0.8-0.3s0.3-0.4,0.3-0.7c0-0.2,0-0.4-0.1-0.5
			s-0.2-0.2-0.4-0.3s-0.3-0.1-0.5-0.1s-0.4,0-0.6,0H294V19.4z"/>
		<path class="st5" d="M299.3,22.4l3.1-2.8c0.2-0.1,0.3-0.3,0.5-0.5s0.2-0.4,0.2-0.6c0-0.3-0.1-0.5-0.3-0.6s-0.4-0.2-0.7-0.2
			c-0.3,0-0.6,0.1-0.7,0.3s-0.3,0.4-0.3,0.7l-1.7-0.1c0-0.4,0.1-0.8,0.3-1.1s0.3-0.6,0.6-0.8c0.2-0.2,0.5-0.4,0.9-0.5
			c0.3-0.1,0.7-0.2,1.1-0.2s0.7,0.1,1,0.2s0.6,0.3,0.8,0.4c0.2,0.2,0.4,0.4,0.5,0.7c0.1,0.3,0.2,0.6,0.2,1c0,0.3,0,0.5-0.1,0.7
			s-0.1,0.4-0.2,0.6s-0.2,0.3-0.3,0.5c-0.1,0.1-0.3,0.3-0.4,0.4l-2.4,2.1h3.5v1.5h-5.5v-1.7H299.3z"/>
		<path class="st5" d="M309.7,22.6h-3.5v-1.4l3.2-4.9h1.8v4.9h1v1.4h-1v1.6h-1.6v-1.6H309.7z M309.7,18.5L309.7,18.5l-1.8,2.7h1.8
			V18.5z"/>
		<path class="st5" d="M318.9,17.8h-3.2V19c0.2-0.1,0.4-0.1,0.7-0.1c0.4,0,0.8,0.1,1.1,0.2c0.3,0.1,0.6,0.3,0.9,0.5
			c0.2,0.2,0.4,0.5,0.6,0.8s0.2,0.7,0.2,1.1s-0.1,0.8-0.2,1.2s-0.4,0.6-0.6,0.9c-0.3,0.2-0.6,0.4-1,0.6c-0.4,0.1-0.8,0.2-1.2,0.2
			c-0.7,0-1.3-0.2-1.7-0.5c-0.5-0.3-0.8-0.8-1-1.5l1.8-0.4c0,0.3,0.2,0.5,0.4,0.7s0.4,0.3,0.7,0.3c0.4,0,0.6-0.1,0.9-0.3
			c0.2-0.2,0.3-0.5,0.3-0.9c0-0.3-0.1-0.5-0.2-0.6c-0.1-0.2-0.2-0.3-0.4-0.4s-0.4-0.2-0.6-0.2s-0.4-0.1-0.7-0.1
			c-0.3,0-0.6,0-0.8,0.1c-0.3,0.1-0.6,0.1-0.8,0.2l0.1-4.4h4.8L318.9,17.8L318.9,17.8z"/>
		<path class="st5" d="M323.6,19.1c0.1,0,0.2,0,0.3-0.1c0.1,0,0.2,0,0.3,0c0.4,0,0.7,0.1,1,0.2s0.6,0.3,0.8,0.5s0.4,0.5,0.5,0.8
			s0.2,0.7,0.2,1c0,0.4-0.1,0.8-0.2,1.1s-0.4,0.6-0.6,0.9c-0.3,0.2-0.6,0.4-0.9,0.6c-0.4,0.1-0.8,0.2-1.2,0.2
			c-0.4,0-0.8-0.1-1.2-0.2c-0.4-0.1-0.7-0.3-0.9-0.6c-0.3-0.2-0.5-0.5-0.6-0.9s-0.2-0.7-0.2-1.1c0-0.3,0-0.5,0.1-0.8
			c0.1-0.2,0.1-0.5,0.2-0.7s0.2-0.4,0.3-0.6c0.1-0.2,0.2-0.4,0.4-0.6l1.7-2.7h2.1L323.6,19.1z M324.9,21.6c0-0.4-0.1-0.7-0.4-0.9
			c-0.2-0.2-0.5-0.4-0.9-0.4s-0.7,0.1-0.9,0.4c-0.2,0.2-0.4,0.5-0.4,0.9s0.1,0.7,0.4,0.9c0.2,0.2,0.5,0.4,0.9,0.4s0.7-0.1,0.9-0.4
			C324.8,22.2,324.9,21.9,324.9,21.6z"/>
		<path class="st5" d="M331.9,17.8H328v-1.5h5.8v1.5l-3.2,6.5h-2L331.9,17.8z"/>
	</g>
	<g>
		<path class="st5" d="M376.9,22H376v-1h1.1l0.2-1.4h-0.9v-1h1.1l0.3-2.3h1.1l-0.3,2.3h1.1l0.3-2.3h1.1l-0.3,2.3h0.9v1h-1.1
			l-0.2,1.4h0.9v1h-1.1l-0.3,2.3h-1.1l0.3-2.3H378l-0.3,2.3h-1.1L376.9,22z M379.4,19.5h-1.1l-0.2,1.4h1.1L379.4,19.5z"/>
		<path class="st5" d="M385.1,19.4h0.5c0.2,0,0.3,0,0.5,0s0.3-0.1,0.4-0.1s0.2-0.2,0.3-0.3c0.1-0.1,0.1-0.3,0.1-0.5
			s-0.1-0.4-0.3-0.6c-0.2-0.2-0.4-0.2-0.7-0.2c-0.3,0-0.5,0.1-0.7,0.2s-0.3,0.3-0.3,0.5L383,18c0.1-0.3,0.2-0.6,0.4-0.9
			s0.4-0.4,0.6-0.6c0.2-0.1,0.5-0.3,0.8-0.3s0.6-0.1,1-0.1s0.7,0,1,0.1s0.6,0.2,0.9,0.4c0.2,0.2,0.4,0.4,0.6,0.7
			c0.1,0.3,0.2,0.6,0.2,1s-0.1,0.8-0.3,1.1c-0.2,0.3-0.6,0.5-1,0.6l0,0c0.2,0,0.5,0.1,0.6,0.2s0.3,0.2,0.5,0.4
			c0.1,0.2,0.2,0.4,0.3,0.6s0.1,0.4,0.1,0.7c0,0.4-0.1,0.7-0.2,1c-0.2,0.3-0.4,0.5-0.6,0.7c-0.3,0.2-0.6,0.3-0.9,0.4
			s-0.7,0.1-1.1,0.1c-0.7,0-1.3-0.2-1.8-0.5s-0.9-0.8-1-1.6l1.8-0.4c0.1,0.3,0.2,0.5,0.4,0.7c0.2,0.2,0.5,0.2,0.8,0.2
			c0.4,0,0.6-0.1,0.8-0.3s0.3-0.4,0.3-0.7c0-0.2,0-0.4-0.1-0.5s-0.2-0.2-0.4-0.3s-0.3-0.1-0.5-0.1s-0.4,0-0.6,0h-0.4L385.1,19.4
			L385.1,19.4z"/>
		<path class="st5" d="M390.4,22.4l3.1-2.8c0.2-0.1,0.3-0.3,0.5-0.5s0.2-0.4,0.2-0.6c0-0.3-0.1-0.5-0.3-0.6s-0.4-0.2-0.7-0.2
			c-0.3,0-0.6,0.1-0.7,0.3s-0.3,0.4-0.3,0.7l-1.7-0.1c0-0.4,0.1-0.8,0.3-1.1s0.3-0.6,0.6-0.8c0.2-0.2,0.5-0.4,0.9-0.5
			c0.3-0.1,0.7-0.2,1.1-0.2s0.7,0.1,1,0.2s0.6,0.3,0.8,0.4c0.2,0.2,0.4,0.4,0.5,0.7c0.1,0.3,0.2,0.6,0.2,1c0,0.3,0,0.5-0.1,0.7
			s-0.1,0.4-0.2,0.6s-0.2,0.3-0.3,0.5c-0.1,0.1-0.3,0.3-0.4,0.4l-2.4,2.1h3.5v1.5h-5.5v-1.7H390.4z"/>
		<path class="st5" d="M400.8,22.6h-3.5v-1.4l3.2-4.9h1.8v4.9h1v1.4h-1v1.6h-1.6v-1.6H400.8z M400.8,18.5L400.8,18.5l-1.8,2.7h1.8
			V18.5z"/>
		<path class="st5" d="M410.1,17.8h-3.2V19c0.2-0.1,0.4-0.1,0.7-0.1c0.4,0,0.8,0.1,1.1,0.2c0.3,0.1,0.6,0.3,0.9,0.5
			c0.2,0.2,0.4,0.5,0.6,0.8s0.2,0.7,0.2,1.1s-0.1,0.8-0.2,1.2s-0.4,0.6-0.6,0.9c-0.3,0.2-0.6,0.4-1,0.6c-0.4,0.1-0.8,0.2-1.2,0.2
			c-0.7,0-1.3-0.2-1.7-0.5c-0.5-0.3-0.8-0.8-1-1.5l1.8-0.4c0,0.3,0.2,0.5,0.4,0.7s0.4,0.3,0.7,0.3c0.4,0,0.6-0.1,0.9-0.3
			c0.2-0.2,0.3-0.5,0.3-0.9c0-0.3-0.1-0.5-0.2-0.6c-0.1-0.2-0.2-0.3-0.4-0.4s-0.4-0.2-0.6-0.2s-0.4-0.1-0.7-0.1
			c-0.3,0-0.6,0-0.8,0.1c-0.3,0.1-0.6,0.1-0.8,0.2l0.1-4.4h4.8L410.1,17.8L410.1,17.8z"/>
		<path class="st5" d="M414.7,19.1c0.1,0,0.2,0,0.3-0.1c0.1,0,0.2,0,0.3,0c0.4,0,0.7,0.1,1,0.2s0.6,0.3,0.8,0.5s0.4,0.5,0.5,0.8
			s0.2,0.7,0.2,1c0,0.4-0.1,0.8-0.2,1.1s-0.4,0.6-0.6,0.9c-0.3,0.2-0.6,0.4-0.9,0.6c-0.4,0.1-0.8,0.2-1.2,0.2
			c-0.4,0-0.8-0.1-1.2-0.2c-0.4-0.1-0.7-0.3-0.9-0.6c-0.3-0.2-0.5-0.5-0.6-0.9s-0.2-0.7-0.2-1.1c0-0.3,0-0.5,0.1-0.8
			c0.1-0.2,0.1-0.5,0.2-0.7s0.2-0.4,0.3-0.6c0.1-0.2,0.2-0.4,0.4-0.6l1.7-2.7h2.1L414.7,19.1z M416.1,21.6c0-0.4-0.1-0.7-0.4-0.9
			c-0.2-0.2-0.5-0.4-0.9-0.4s-0.7,0.1-0.9,0.4c-0.2,0.2-0.4,0.5-0.4,0.9s0.1,0.7,0.4,0.9c0.2,0.2,0.5,0.4,0.9,0.4s0.7-0.1,0.9-0.4
			S416.1,21.9,416.1,21.6z"/>
		<path class="st5" d="M423,17.8h-3.9v-1.5h5.8v1.5l-3.2,6.5h-2L423,17.8z"/>
	</g>
</g>
</svg>
