<svg width="391" height="84" version="1.1" id="Layer_1" xmlns="http://www.w3.org/2000/svg" xmlns:xlink="http://www.w3.org/1999/xlink" x="0px" y="0px"
	 viewBox="0 0 391 84" style="enable-background:new 0 0 391 84;" xml:space="preserve">
<style type="text/css">
	.st0{fill:#FBB03B;}
</style>
<path class="st0" d="M123.5,18.1c8.7,0,19,4.2,19,15.8c0,11.7-10.3,15.9-19,15.9h-5.8V69h-10.4V18.1H123.5z M117.7,41h4.1
	c5.5,0,9.7-1.8,9.7-6.9c0-4.5-3.3-7.2-8.3-7.2h-5.5V41z M155.4,52.4c0.7,5.2,4.1,9.2,9.6,9.2c4.9,0,7.5-2,10-5.7l6.8,4.6
	c-4.4,6.3-9.2,9.4-17.5,9.4c-11.6,0-19.3-8.1-19.3-19.6c0-11.6,8.4-20.4,19.4-20.4c10.6,0,18.5,7.5,18.5,17.7c0,1.5-0.2,3.3-0.5,4.9
	H155.4z M172.3,45.4c-0.2-4.6-3.4-7.4-7.6-7.4c-4.9,0-7.6,3.1-8.7,7.4H172.3z M200.1,35.8c2.2-3.6,5.2-6,8.9-6
	c1.9,0,3.6,0.4,4.9,0.9l-2.5,9c-1.1-0.6-2.3-0.9-3.6-0.9c-3,0-5.7,1.7-7.2,4.2V69h-10.3V30.8h8.9L200.1,35.8z M244.9,23.7
	c-1.7-0.9-3.3-1.2-5.3-1.2c-1.7,0-2.6,0.4-3.2,1.2c-0.8,1.1-1,2.8-1,4.7v2.5h9.5v8.6h-9.5V69h-10.3V39.3h-4.1v-8.6h4.1v-3.1
	c0-4.4,0.8-7.8,2.8-10.2c2.1-2.6,5.5-3.9,10.8-3.9c3.3,0,6.5,0.8,9.5,2.2L244.9,23.7z M277.1,26.9V69h-10.4V26.9h-12.1v-8.8h34.5
	v8.8H277.1z M327.9,49.9c0,11.3-8.4,20-20,20c-11.7,0-20.1-8.7-20.1-20c0-11.3,8.4-20,20.1-20C319.5,29.9,327.9,38.6,327.9,49.9z
	 M307.9,38.8c-5.7,0-9.5,4.9-9.5,11.1s3.9,11.1,9.5,11.1s9.5-4.9,9.5-11.1S313.5,38.8,307.9,38.8z M372.7,49.9c0,11.3-8.4,20-20,20
	c-11.7,0-20.1-8.7-20.1-20c0-11.3,8.4-20,20.1-20C364.4,29.9,372.7,38.6,372.7,49.9z M352.7,38.8c-5.7,0-9.5,4.9-9.5,11.1
	s3.9,11.1,9.5,11.1s9.5-4.9,9.5-11.1S358.4,38.8,352.7,38.8z M390.5,69h-10.3V14.5h10.3V69z"/>
<path class="st0" d="M72.3,83H10.8C5.1,83,0.5,78.4,0.5,72.8V11.2C0.5,5.6,5.1,1,10.8,1h61.5c5.6,0,10.2,4.6,10.2,10.2v61.5
	C82.5,78.4,77.9,83,72.3,83z M10.8,3c-4.5,0-8.2,3.7-8.2,8.2v61.5c0,4.5,3.7,8.2,8.2,8.2h61.5c4.5,0,8.2-3.7,8.2-8.2V11.2
	c0-4.5-3.7-8.2-8.2-8.2H10.8z M67.6,46.9v-10h-25v-6h10v-10h-10v-8h-2v8h-26v10h26v6h-26v10h26v6h-26v10h26v10h2v-10h17v-10h-17v-6
	H67.6z"/>
</svg>
