<svg width="430" height="385" xmlns="http://www.w3.org/2000/svg" viewBox="0 0 430 385" enable-background="new 0 0 430 385"><g fill="#fbb03b"><path d="m411.5 30.2h-16v1h8v354h1v-354h7z"/><path d="m389.8 8.9c0-.8.1-1.5.4-2.1.3-.6.7-1.1 1.2-1.5.5-.4 1.1-.7 1.8-.9.7-.2 1.4-.3 2.2-.3.8 0 1.5.1 2.2.3.7.2 1.3.5 1.8.9.5.4.9.9 1.2 1.5.3.6.5 1.3.5 2.1 0 .9-.3 1.7-.8 2.4s-1.2 1.1-2.1 1.4c1 .3 1.8.8 2.4 1.5s.8 1.6.8 2.7c0 .8-.2 1.5-.5 2.2s-.8 1.1-1.3 1.5c-.6.4-1.2.7-1.9.9-.7.2-1.5.3-2.3.3-.8 0-1.5-.1-2.3-.3-.7-.2-1.4-.5-1.9-.9-.6-.4-1-.9-1.3-1.5-.3-.6-.5-1.3-.5-2.2 0-1.1.3-1.9.8-2.7.5-.7 1.3-1.2 2.4-1.5-.9-.3-1.6-.7-2.1-1.4s-.7-1.5-.7-2.4m3.3 7.4c0 .6.2 1.1.6 1.5.4.4 1 .6 1.7.6.7 0 1.3-.2 1.7-.6.4-.4.6-.9.6-1.5 0-.6-.2-1.1-.6-1.5-.4-.4-1-.6-1.7-.6-.7 0-1.3.2-1.7.6-.4.4-.6.9-.6 1.5m.3-6.9c0 .5.2 1 .6 1.3s.9.6 1.5.6c.6 0 1.1-.2 1.5-.6s.6-.8.6-1.3c0-.5-.2-1-.6-1.3-.4-.4-.9-.6-1.5-.6-.6 0-1.1.2-1.5.6-.4.3-.6.8-.6 1.3"/><path d="m404.3 13c0-1 .1-2 .3-3.1.2-1 .5-2 1-2.8.5-.8 1.1-1.5 1.9-2.1.8-.5 1.9-.8 3.1-.8 1.3 0 2.3.3 3.1.8.8.5 1.5 1.2 1.9 2.1.5.8.8 1.8 1 2.8.2 1 .3 2.1.3 3.1s-.1 2-.3 3.1c-.2 1-.5 2-1 2.8-.5.8-1.1 1.5-1.9 2.1-.8.5-1.9.8-3.1.8-1.3 0-2.3-.3-3.1-.8-.8-.5-1.5-1.2-1.9-2.1s-.8-1.8-1-2.8c-.2-1.1-.3-2.1-.3-3.1m3.6 0c0 .4 0 1 .1 1.6s.1 1.2.3 1.8c.2.6.4 1.1.8 1.5.4.4.9.6 1.5.6.6 0 1.1-.2 1.5-.6.4-.4.6-.9.8-1.5s.3-1.2.3-1.8.1-1.2.1-1.6c0-.4 0-1-.1-1.6 0-.6-.1-1.2-.3-1.8s-.4-1.1-.8-1.5c-.4-.4-.9-.6-1.5-.6-.7 0-1.2.2-1.5.6-.4.4-.6.9-.8 1.5-.2.6-.3 1.2-.3 1.8-.1.6-.1 1.2-.1 1.6"/></g><path fill="#3f3f3f" d="m0 49.6h299v28.4h-299z"/><path fill="#d83642" d="m0 78h344.4v28.4h-344.4z"/><path fill="#3f3f3f" d="m0 130.4h385.5v28.4h-385.5z"/><path fill="#39b54a" d="m0 158.7h428.9v28.4h-428.9z"/><g fill="#fff"><path d="m17.4 59.6l-2.4 3.7c.1-.1.2-.1.4-.1.2 0 .3 0 .5 0 .4 0 .8.1 1.2.3.4.2.7.4.9.7.3.3.5.6.6 1 .1.4.2.8.2 1.2 0 .5-.1 1-.3 1.4-.2.4-.4.8-.7 1.1s-.7.5-1.1.7c-.4.2-.9.2-1.4.2-.5 0-1-.1-1.4-.2-.4-.2-.8-.4-1.1-.7-.3-.3-.6-.6-.7-1.1s-.3-.9-.3-1.4.1-1 .3-1.4.4-.9.7-1.3l2.5-4h2.1zm-3.8 6.7c0 .3 0 .5.1.7.1.2.2.4.4.6.2.2.4.3.6.4.2.1.5.1.7.1.3 0 .5 0 .7-.1.2-.1.4-.2.6-.4s.3-.4.4-.6c.1-.2.1-.5.1-.7s0-.5-.1-.7c-.1-.2-.2-.4-.4-.6s-.4-.3-.6-.4c-.2-.1-.5-.1-.7-.1-.3 0-.5 0-.7.1-.2.1-.4.2-.6.4-.2.2-.3.4-.4.6 0 .2-.1.4-.1.7"/><path d="m20.6 64.5c0-.8.1-1.5.2-2s.3-1 .5-1.4.4-.7.7-.9c.3-.2.5-.4.8-.5.3-.1.5-.2.8-.2.2 0 .5-.1.7-.1.2 0 .4 0 .7.1.2 0 .5.1.8.2.3.1.5.3.8.5.3.2.5.5.7.9s.4.8.5 1.4.2 1.2.2 2-.1 1.5-.2 2c-.1.6-.3 1-.5 1.4s-.4.7-.7.9-.5.4-.8.5c-.3.1-.5.2-.8.2-.2 0-.5.1-.7.1-.2 0-.4 0-.7-.1-.2 0-.5-.1-.8-.2-.3-.1-.5-.3-.8-.5-.3-.2-.5-.5-.7-.9s-.4-.8-.5-1.4c-.1-.5-.2-1.2-.2-2m1.7 0c0 .3 0 .7.1 1.1s.1.8.3 1.2c.1.4.3.7.6.9s.6.4 1 .4c.4 0 .8-.1 1-.4s.4-.6.6-.9c.1-.4.2-.7.3-1.2s.1-.8.1-1.1 0-.7-.1-1.1c0-.4-.1-.8-.3-1.2-.1-.4-.3-.7-.6-.9-.3-.3-.6-.4-1-.4-.4 0-.8.1-1 .4-.3.3-.4.6-.6.9-.1.4-.2.7-.3 1.2-.1.5-.1.8-.1 1.1"/><path d="m17.4 87.6l-2.4 3.7c.1-.1.2-.1.4-.1.2 0 .3 0 .5 0 .4 0 .8.1 1.2.3.4.2.7.4.9.7.3.3.5.6.6 1 .1.4.2.8.2 1.2 0 .5-.1 1-.3 1.4-.2.4-.4.8-.7 1.1s-.7.5-1.1.7c-.4.2-.9.2-1.4.2-.5 0-1-.1-1.4-.2-.4-.2-.8-.4-1.1-.7-.3-.3-.6-.6-.7-1.1s-.3-.9-.3-1.4.1-1 .3-1.4.4-.9.7-1.3l2.5-4h2.1zm-3.8 6.7c0 .3 0 .5.1.7.1.2.2.4.4.6.2.2.4.3.6.4.2.1.5.1.7.1.3 0 .5 0 .7-.1.2-.1.4-.2.6-.4s.3-.4.4-.6c.1-.2.1-.5.1-.7s0-.5-.1-.7c-.1-.2-.2-.4-.4-.6s-.4-.3-.6-.4c-.2-.1-.5-.1-.7-.1-.3 0-.5 0-.7.1-.2.1-.4.2-.6.4-.2.2-.3.4-.4.6 0 .2-.1.4-.1.7"/><path d="m27.2 89.1h-4v2c.1 0 .3-.1.5-.1.2 0 .4 0 .6 0 .5 0 .9.1 1.3.2.4.2.8.4 1 .7.3.3.5.6.7 1s.2.9.2 1.4c0 .5-.1 1-.3 1.4-.2.4-.4.8-.8 1.1s-.7.5-1.1.7c-.4.2-.9.2-1.4.2-.8 0-1.5-.2-2-.6-.6-.4-.9-.9-1.2-1.7l1.8-.5c.1.4.3.6.6.8.3.2.6.3 1 .3.3 0 .5 0 .7-.1s.4-.2.5-.4.3-.3.4-.5c.1-.2.1-.4.1-.7 0-.3-.1-.6-.2-.9s-.3-.4-.5-.6c-.2-.2-.5-.3-.7-.3-.3-.1-.6-.1-.9-.1-.4 0-.7 0-1.1.1-.4.1-.7.2-1 .3l.1-5.3h5.6v1.6z"/><path d="m11.8 140.6h6.7v1.5l-4 8.4h-2l4-8.3h-4.8v-1.6z"/><path d="m27.2 142.1h-4v2c.1 0 .3-.1.5-.1.2 0 .4 0 .6 0 .5 0 .9.1 1.3.2.4.2.8.4 1 .7.3.3.5.6.7 1s.2.9.2 1.4c0 .5-.1 1-.3 1.4-.2.4-.4.8-.8 1.1s-.7.5-1.1.7c-.4.2-.9.2-1.4.2-.8 0-1.5-.2-2-.6-.6-.4-.9-.9-1.2-1.7l1.8-.5c.1.4.3.6.6.8.3.2.6.3 1 .3.3 0 .5 0 .7-.1s.4-.2.5-.4.3-.3.4-.5c.1-.2.1-.4.1-.7 0-.3-.1-.6-.2-.9s-.3-.4-.5-.6c-.2-.2-.5-.3-.7-.3-.3-.1-.6-.1-.9-.1-.4 0-.7 0-1.1.1-.4.1-.7.2-1 .3l.1-5.3h5.6v1.6z"/><path d="m13.4 178.5l2.4-3.7c-.1.1-.2.1-.4.1-.2 0-.3 0-.5 0-.4 0-.8-.1-1.2-.3-.4-.2-.7-.4-.9-.7-.3-.3-.5-.6-.6-1s-.2-.8-.2-1.2c0-.5.1-1 .3-1.4.2-.4.4-.8.7-1.1.3-.3.7-.5 1.1-.7.4-.2.9-.2 1.4-.2.5 0 1 .1 1.4.2.4.2.8.4 1.1.7.3.3.6.6.7 1.1s.3.9.3 1.4-.1 1-.3 1.4-.4.9-.7 1.3l-2.5 4h-2.1zm3.7-6.7c0-.3 0-.5-.1-.7-.1-.2-.2-.4-.4-.6s-.4-.3-.6-.4c-.2-.1-.5-.1-.7-.1s-.5 0-.7.1c-.2.1-.4.2-.6.4-.2.2-.3.4-.4.6-.1.2-.1.5-.1.7s0 .5.1.7c.1.2.2.4.4.6.2.2.4.3.6.4.2.1.5.1.7.1s.5 0 .7-.1c.2-.1.4-.2.6-.4.2-.2.3-.4.4-.6.1-.2.1-.4.1-.7"/><path d="m20.6 173.5c0-.8.1-1.5.2-2s.3-1 .5-1.4.4-.7.7-.9c.3-.2.5-.4.8-.5.3-.1.5-.2.8-.2.2 0 .5-.1.7-.1.2 0 .4 0 .7.1.2 0 .5.1.8.2.3.1.5.3.8.5.3.2.5.5.7.9s.4.8.5 1.4.2 1.2.2 2-.1 1.5-.2 2c-.1.6-.3 1-.5 1.4s-.4.7-.7.9-.5.4-.8.5c-.3.1-.5.2-.8.2-.2 0-.5.1-.7.1-.2 0-.4 0-.7-.1-.2 0-.5-.1-.8-.2-.3-.1-.5-.3-.8-.5-.3-.2-.5-.5-.7-.9s-.4-.8-.5-1.4c-.1-.5-.2-1.2-.2-2m1.7 0c0 .3 0 .7.1 1.1s.1.8.3 1.2c.1.4.3.7.6.9s.6.4 1 .4c.4 0 .8-.1 1-.4s.4-.6.6-.9c.1-.4.2-.7.3-1.2s.1-.8.1-1.1 0-.7-.1-1.1c0-.4-.1-.8-.3-1.2-.1-.4-.3-.7-.6-.9-.3-.3-.6-.4-1-.4-.4 0-.8.1-1 .4-.3.3-.4.6-.6.9-.1.4-.2.7-.3 1.2-.1.5-.1.8-.1 1.1"/></g></svg>