<svg xmlns="http://www.w3.org/2000/svg" viewBox="0 0 82.48 82.48" width="82" height="82"><rect x="1" y="1" width="80.48" height="80.48" rx="10" fill="none" stroke="#1a1a1a" stroke-width="2" stroke-miterlimit="10"/><g fill="#1a1a1a" transform="translate(-129-2629.18)"><path d="M176.21,2680.94a28.42,28.42,0,0,0,12.53-7L164,2660.33a30.11,30.11,0,0,0-12.28,7.1Z"/><path d="M179,2682.48a29.24,29.24,0,0,1-29.45-7.27v13.91a40.22,40.22,0,0,0,41.42,0v-13.91A29.31,29.31,0,0,1,179,2682.48Z"/><path d="M170.24 2646.49a40.07 40.07 0 0 0 -20.71 5.74v13.91a29.22 29.22 0 0 1 41.42 0v-13.91A40.07 40.07 0 0 0 170.24 2646.49"/></g></svg>