<svg xmlns="http://www.w3.org/2000/svg" viewBox="0 0 437.9 203" width="440px" height="203px"><g transform="translate(0-1)"><path d="M0,1H76.8V204H0V1Z" fill="#eb2026"/><path d="M90.3,1h76.8V204H90.3V1Z" fill="#f05a26"/><path d="M180.6,1h76.8V204H180.6V1Z" fill="#faaf3a"/><path d="M270.8,1h76.8V204H270.8V1Z" fill="#29a9e1"/><path d="M361.1,1h76.8V204H361.1V1Z" fill="#39b44a"/><g fill="#fff"><path d="m14.5 22h-.9v-1h1.1l.2-1.4h-.9v-1h1l.3-2.3h1.1l-.3 2.3h1.1l.3-2.3h1.1l-.3 2.3h.9v1h-1.1l-.1 1.4h.9v1h-1.1l-.3 2.3h-1.1l.3-2.3h-1.1l-.3 2.3h-1.1l.3-2.3m2.6-2.5h-1.1l-.2 1.5h1.1l.2-1.5"/><path d="m22.7 19.4h1a2.27 2.27 0 0 0 .4 -.1 .85 .85 0 0 0 .3 -.3 .75 .75 0 0 0 .1 -.5 .86 .86 0 0 0 -.3 -.6 .84 .84 0 0 0 -.7 -.2 1.45 1.45 0 0 0 -.7 .2 .55 .55 0 0 0 -.3 .5l-1.8-.4a3.55 3.55 0 0 1 .4 -.9 3.39 3.39 0 0 1 .6 -.6 1.91 1.91 0 0 1 .8 -.3c.3 0 .6-.1 1-.1a3.08 3.08 0 0 1 1 .1 3.55 3.55 0 0 1 .9 .4 4.35 4.35 0 0 1 .6 .7 3 3 0 0 1 .2 1 2 2 0 0 1 -.3 1.1 1.7 1.7 0 0 1 -1 .6 1.07 1.07 0 0 1 .6 .2c.1.1.3.2.5.4l.3.6a1.48 1.48 0 0 1 .1 .7 3 3 0 0 1 -.2 1 4.35 4.35 0 0 1 -.6 .7 3.55 3.55 0 0 1 -.9 .4 3.75 3.75 0 0 1 -1.1 .1 3.45 3.45 0 0 1 -1.8 -.5 2.06 2.06 0 0 1 -1 -1.6l1.8-.4a1.61 1.61 0 0 0 .4 .7 1.08 1.08 0 0 0 .8 .2 1 1 0 0 0 .8 -.3 .91 .91 0 0 0 .3 -.7 .75 .75 0 0 0 -.1 -.5 1.38 1.38 0 0 0 -.4 -.3 .9 .9 0 0 0 -.5 -.1h-1v-1.2h-.2"/><path d="m28 22.4l3.1-2.8a2.36 2.36 0 0 0 .5 -.5 .73 .73 0 0 0 .2 -.6 .6 .6 0 0 0 -.3 -.6 1.45 1.45 0 0 0 -.7 -.2 .78 .78 0 0 0 -.7 .3 1.49 1.49 0 0 0 -.3 .7l-1.7-.1a2 2 0 0 1 .3 -1.1 2.41 2.41 0 0 1 .6 -.8 1.93 1.93 0 0 1 .9 -.5 3.59 3.59 0 0 1 1.1 -.2 3 3 0 0 1 1 .2 5.94 5.94 0 0 1 .8 .4 1.79 1.79 0 0 1 .5 .7 3 3 0 0 1 .2 1 1.48 1.48 0 0 1 -.1 .7c-.1.2-.1.4-.2.6s-.2.3-.3.5l-.4.4-2.4 2.1h3.5v1.5h-5.6v-1.7"/><path d="M38.4,22.6H35V21.2l3.2-4.9H40v4.9h1v1.4H40v1.6H38.4V22.6m0-4.1-1.8,2.7h1.8V18.5"/><path d="M47.7,17.8H44.5V19a1.48,1.48,0,0,1,.7-0.1,3.59,3.59,0,0,1,1.1.2,4.05,4.05,0,0,1,.9.5,5.55,5.55,0,0,1,.6.8,2,2,0,0,1,.2,1.1,5,5,0,0,1-.2,1.2,2.84,2.84,0,0,1-.6.9,8.79,8.79,0,0,1-1,.6,5,5,0,0,1-1.2.2,2.86,2.86,0,0,1-1.7-.5,2.38,2.38,0,0,1-1-1.5l1.8-.4a1,1,0,0,0,.4.7,0.91,0.91,0,0,0,.7.3,1.4,1.4,0,0,0,.9-0.3,1.22,1.22,0,0,0,.3-0.9,0.85,0.85,0,0,0-.2-0.6,0.78,0.78,0,0,0-.4-0.4,1.42,1.42,0,0,0-.6-0.2c-0.2,0-.4-0.1-0.7-0.1a2,2,0,0,0-.8.1c-0.3.1-.6,0.1-0.8,0.2L43,16.4h4.8l-0.1,1.4"/><path d="M52.3,19.1a0.37,0.37,0,0,0,.3-0.1h0.3a3,3,0,0,1,1,.2,2.1,2.1,0,0,1,1.3,1.3,3.55,3.55,0,0,1,.2,1,3.59,3.59,0,0,1-.2,1.1,4.7,4.7,0,0,1-.6.9l-0.9.6a3.7,3.7,0,0,1-2.4,0,1.46,1.46,0,0,1-.9-0.6,1.46,1.46,0,0,1-.6-0.9,4.25,4.25,0,0,1-.2-1.1,2.2,2.2,0,0,1,.1-0.8c0.1-.2.1-0.5,0.2-0.7l0.3-.6a2.09,2.09,0,0,1,.4-0.6l1.7-2.7h2.1l-2.1,3m1.4,2.5a1,1,0,0,0-.4-0.9,1.27,1.27,0,0,0-.9-0.4,1,1,0,0,0-.9.4,1.27,1.27,0,0,0-.4.9,1,1,0,0,0,.4.9,1.27,1.27,0,0,0,.9.4,1,1,0,0,0,.9-0.4,1.8,1.8,0,0,0,.4-0.9"/><path d="m60.6 17.8h-3.9v-1.5h5.8v1.5l-3.2 6.5h-2l3.3-6.5"/><path d="m105.3 22h-.9v-1h1.1l.2-1.4h-.9v-1h1.1l.3-2.3h1.1l-.3 2.3h1.1l.3-2.3h1.1l-.3 2.3h.9v1h-1.1l-.2 1.4h.9v1h-1.1l-.3 2.3h-1.1l.3-2.3h-1.1l-.3 2.3h-1.1l.3-2.3m2.5-2.5h-1.1l-.2 1.4h1.1l.2-1.4"/><path d="m113.4 19.4h1a2.27 2.27 0 0 0 .4 -.1 .85 .85 0 0 0 .3 -.3 .75 .75 0 0 0 .1 -.5 .86 .86 0 0 0 -.3 -.6 .84 .84 0 0 0 -.7 -.2 1.45 1.45 0 0 0 -.7 .2 .55 .55 0 0 0 -.3 .5l-1.9-.4a3.55 3.55 0 0 1 .4 -.9 3.39 3.39 0 0 1 .6 -.6 1.91 1.91 0 0 1 .8 -.3c.3 0 .6-.1 1-.1a3.08 3.08 0 0 1 1 .1 3.55 3.55 0 0 1 .9 .4 4.35 4.35 0 0 1 .6 .7 3 3 0 0 1 .2 1 2 2 0 0 1 -.3 1.1 1.7 1.7 0 0 1 -1 .6 1.07 1.07 0 0 1 .6 .2c.1.1.3.2.5.4l.3.6a1.48 1.48 0 0 1 .1 .7 3 3 0 0 1 -.2 1 4.35 4.35 0 0 1 -.6 .7 3.55 3.55 0 0 1 -.9 .4 3.75 3.75 0 0 1 -1.1 .1 3.45 3.45 0 0 1 -1.8 -.5 2.06 2.06 0 0 1 -1 -1.6l1.8-.4a1.61 1.61 0 0 0 .4 .7 1.08 1.08 0 0 0 .8 .2 1 1 0 0 0 .8 -.3 .91 .91 0 0 0 .3 -.7 .75 .75 0 0 0 -.1 -.5 1.38 1.38 0 0 0 -.4 -.3 .9 .9 0 0 0 -.5 -.1h-1v-1.2h-.1"/><path d="m118.8 22.4l3.1-2.8a2.36 2.36 0 0 0 .5 -.5 .73 .73 0 0 0 .2 -.6 .6 .6 0 0 0 -.3 -.6 1.45 1.45 0 0 0 -.7 -.2 .78 .78 0 0 0 -.7 .3 1.49 1.49 0 0 0 -.3 .7l-1.7-.1a2 2 0 0 1 .3 -1.1 2.41 2.41 0 0 1 .6 -.8 1.93 1.93 0 0 1 .9 -.5 3.59 3.59 0 0 1 1.1 -.2 3 3 0 0 1 1 .2 5.94 5.94 0 0 1 .8 .4 1.79 1.79 0 0 1 .5 .7 3 3 0 0 1 .2 1 1.48 1.48 0 0 1 -.1 .7c-.1.2-.1.4-.2.6s-.2.3-.3.5l-.4.4-2.4 2.1h3.5v1.5h-5.5l-.1-1.7"/><path d="M129.1,22.6h-3.5V21.2l3.2-4.9h1.8v4.9h1v1.4h-1v1.6H129V22.6h0.1m0-4.1-1.8,2.7h1.8V18.5"/><path d="M138.4,17.8h-3.2V19a1.48,1.48,0,0,1,.7-0.1,3.6,3.6,0,0,1,1.1.2,4.05,4.05,0,0,1,.9.5,5.55,5.55,0,0,1,.6.8,2,2,0,0,1,.2,1.1,5,5,0,0,1-.2,1.2,2.84,2.84,0,0,1-.6.9,8.79,8.79,0,0,1-1,.6,5,5,0,0,1-1.2.2,2.86,2.86,0,0,1-1.7-.5,2.38,2.38,0,0,1-1-1.5l1.8-.4a1,1,0,0,0,.4.7,0.91,0.91,0,0,0,.7.3,1.4,1.4,0,0,0,.9-0.3,1.22,1.22,0,0,0,.3-0.9,0.85,0.85,0,0,0-.2-0.6,0.78,0.78,0,0,0-.4-0.4,1.42,1.42,0,0,0-.6-0.2c-0.2,0-.4-0.1-0.7-0.1a2,2,0,0,0-.8.1c-0.3.1-.6,0.1-0.8,0.2l0.1-4.4h4.8v1.4h-0.1"/><path d="M143,19.1a0.37,0.37,0,0,0,.3-0.1h0.3a3,3,0,0,1,1,.2,2.1,2.1,0,0,1,1.3,1.3,3.55,3.55,0,0,1,.2,1,3.6,3.6,0,0,1-.2,1.1,4.69,4.69,0,0,1-.6.9l-0.9.6a3.7,3.7,0,0,1-2.4,0,1.46,1.46,0,0,1-.9-0.6,1.46,1.46,0,0,1-.6-0.9,4.25,4.25,0,0,1-.2-1.1,2.2,2.2,0,0,1,.1-0.8c0.1-.2.1-0.5,0.2-0.7l0.3-.6a2.09,2.09,0,0,1,.4-0.6l1.7-2.7h2.1l-2.1,3m1.4,2.5a1,1,0,0,0-.4-0.9,1.27,1.27,0,0,0-.9-0.4,1,1,0,0,0-.9.4,1.27,1.27,0,0,0-.4.9,1,1,0,0,0,.4.9,1.27,1.27,0,0,0,.9.4,1,1,0,0,0,.9-0.4,1.22,1.22,0,0,0,.4-0.9"/><path d="m151.4 17.8h-3.9v-1.5h5.8v1.5l-3.2 6.5h-2l3.3-6.5"/><path d="m195.5 22h-.9v-1h1.1l.2-1.4h-.9v-1h1.1l.3-2.3h1.1l-.3 2.3h1.1l.3-2.3h1.1l-.3 2.3h.9v1h-1.1l-.2 1.4h.9v1h-1.1l-.3 2.3h-1.1l.3-2.3h-1.1l-.3 2.3h-1.1l.3-2.3m2.6-2.5h-1.1l-.2 1.4h1.1l.2-1.4"/><path d="m203.7 19.4h1a2.27 2.27 0 0 0 .4 -.1 .85 .85 0 0 0 .3 -.3 .75 .75 0 0 0 .1 -.5 .86 .86 0 0 0 -.3 -.6 .84 .84 0 0 0 -.7 -.2 1.45 1.45 0 0 0 -.7 .2 .55 .55 0 0 0 -.3 .5l-1.9-.4a3.55 3.55 0 0 1 .4 -.9 3.39 3.39 0 0 1 .6 -.6 1.91 1.91 0 0 1 .8 -.3c.3 0 .6-.1 1-.1a3.08 3.08 0 0 1 1 .1 3.55 3.55 0 0 1 .9 .4 4.35 4.35 0 0 1 .6 .7 3 3 0 0 1 .2 1 2 2 0 0 1 -.3 1.1 1.7 1.7 0 0 1 -1 .6 1.07 1.07 0 0 1 .6 .2c.1.1.3.2.5.4l.3.6a1.48 1.48 0 0 1 .1 .7 3 3 0 0 1 -.2 1 4.35 4.35 0 0 1 -.6 .7 3.55 3.55 0 0 1 -.9 .4 3.75 3.75 0 0 1 -1.1 .1 3.45 3.45 0 0 1 -1.8 -.5 2.06 2.06 0 0 1 -1 -1.6l1.8-.4a1.61 1.61 0 0 0 .4 .7 1.08 1.08 0 0 0 .8 .2 1 1 0 0 0 .8 -.3 .91 .91 0 0 0 .3 -.7 .75 .75 0 0 0 -.1 -.5 1.38 1.38 0 0 0 -.4 -.3 .9 .9 0 0 0 -.5 -.1h-1v-1.2h-.1"/><path d="m209 22.4l3.1-2.8a2.36 2.36 0 0 0 .5 -.5 .73 .73 0 0 0 .2 -.6 .6 .6 0 0 0 -.3 -.6 1.45 1.45 0 0 0 -.7 -.2 .78 .78 0 0 0 -.7 .3 1.49 1.49 0 0 0 -.3 .7l-1.7-.1a2 2 0 0 1 .3 -1.1 2.41 2.41 0 0 1 .6 -.8 1.93 1.93 0 0 1 .9 -.5 3.59 3.59 0 0 1 1.1 -.2 3 3 0 0 1 1 .2 5.94 5.94 0 0 1 .8 .4 1.79 1.79 0 0 1 .5 .7 3 3 0 0 1 .2 1 1.48 1.48 0 0 1 -.1 .7c-.1.2-.1.4-.2.6s-.2.3-.3.5l-.4.4-2.4 2.1h3.5v1.5h-5.6v-1.7"/><path d="M219.4,22.6H216V21.2l3.2-4.9H221v4.9h1v1.4h-1v1.6h-1.6V22.6m0-4.1-1.8,2.7h1.8V18.5"/><path d="M228.7,17.8h-3.2V19a1.48,1.48,0,0,1,.7-0.1,3.6,3.6,0,0,1,1.1.2,4.05,4.05,0,0,1,.9.5,5.55,5.55,0,0,1,.6.8,2,2,0,0,1,.2,1.1,5,5,0,0,1-.2,1.2,2.84,2.84,0,0,1-.6.9,8.79,8.79,0,0,1-1,.6,5,5,0,0,1-1.2.2,2.86,2.86,0,0,1-1.7-.5,2.38,2.38,0,0,1-1-1.5l1.8-.4a1,1,0,0,0,.4.7,0.91,0.91,0,0,0,.7.3,1.4,1.4,0,0,0,.9-0.3,1.22,1.22,0,0,0,.3-0.9,0.85,0.85,0,0,0-.2-0.6,0.78,0.78,0,0,0-.4-0.4,1.42,1.42,0,0,0-.6-0.2c-0.2,0-.4-0.1-0.7-0.1a2,2,0,0,0-.8.1c-0.3.1-.6,0.1-0.8,0.2l0.1-4.4h4.8v1.4h-0.1"/><path d="M233.3,19.1a0.37,0.37,0,0,0,.3-0.1h0.3a3,3,0,0,1,1,.2,2.1,2.1,0,0,1,1.3,1.3,3.55,3.55,0,0,1,.2,1,3.6,3.6,0,0,1-.2,1.1,4.69,4.69,0,0,1-.6.9l-0.9.6a3.7,3.7,0,0,1-2.4,0,1.46,1.46,0,0,1-.9-0.6,1.46,1.46,0,0,1-.6-0.9,4.25,4.25,0,0,1-.2-1.1,2.2,2.2,0,0,1,.1-0.8c0.1-.2.1-0.5,0.2-0.7l0.3-.6a2.09,2.09,0,0,1,.4-0.6l1.7-2.7h2.1l-2.1,3m1.4,2.5a1,1,0,0,0-.4-0.9,1.27,1.27,0,0,0-.9-0.4,1,1,0,0,0-.9.4,1.27,1.27,0,0,0-.4.9,1,1,0,0,0,.4.9,1.27,1.27,0,0,0,.9.4,1,1,0,0,0,.9-0.4,1.8,1.8,0,0,0,.4-0.9"/><path d="m241.6 17.8h-3.9v-1.5h5.8v1.5l-3.2 6.5h-2l3.3-6.5"/><path d="m285.8 22h-.9v-1h1.1l.2-1.4h-.9v-1h1.1l.3-2.3h1.1l-.3 2.3h1.1l.3-2.3h1.1l-.3 2.3h.9v1h-1.1l-.2 1.4h.9v1h-1.1l-.3 2.3h-1.1l.3-2.3h-1.1l-.3 2.3h-1.1l.3-2.3m2.5-2.5h-1.1l-.2 1.5h1.1l.2-1.5"/><path d="m294 19.4h1a2.27 2.27 0 0 0 .4 -.1 .85 .85 0 0 0 .3 -.3 .75 .75 0 0 0 .1 -.5 .86 .86 0 0 0 -.3 -.6 .84 .84 0 0 0 -.7 -.2 1.45 1.45 0 0 0 -.7 .2 .55 .55 0 0 0 -.3 .5l-1.8-.4a3.55 3.55 0 0 1 .4 -.9 3.39 3.39 0 0 1 .6 -.6 1.91 1.91 0 0 1 .8 -.3c.3 0 .6-.1 1-.1a3.08 3.08 0 0 1 1 .1 3.55 3.55 0 0 1 .9 .4 4.35 4.35 0 0 1 .6 .7 3 3 0 0 1 .2 1 2 2 0 0 1 -.3 1.1 1.7 1.7 0 0 1 -1 .6 1.07 1.07 0 0 1 .6 .2c.1.1.3.2.5.4l.3.6a1.48 1.48 0 0 1 .1 .7 3 3 0 0 1 -.2 1 4.35 4.35 0 0 1 -.6 .7 3.55 3.55 0 0 1 -.9 .4 3.75 3.75 0 0 1 -1.1 .1 3.45 3.45 0 0 1 -1.8 -.5 2.06 2.06 0 0 1 -1 -1.6l1.8-.4a1.61 1.61 0 0 0 .4 .7 1.08 1.08 0 0 0 .8 .2 1 1 0 0 0 .8 -.3 .91 .91 0 0 0 .3 -.7 .75 .75 0 0 0 -.1 -.5 1.38 1.38 0 0 0 -.4 -.3 .9 .9 0 0 0 -.5 -.1h-1.2v-1.2"/><path d="m299.3 22.4l3.1-2.8a2.36 2.36 0 0 0 .5 -.5 .73 .73 0 0 0 .2 -.6 .6 .6 0 0 0 -.3 -.6 1.45 1.45 0 0 0 -.7 -.2 .78 .78 0 0 0 -.7 .3 1.49 1.49 0 0 0 -.3 .7l-1.7-.1a2 2 0 0 1 .3 -1.1 2.41 2.41 0 0 1 .6 -.8 1.93 1.93 0 0 1 .9 -.5 3.59 3.59 0 0 1 1.1 -.2 3 3 0 0 1 1 .2 5.94 5.94 0 0 1 .8 .4 1.79 1.79 0 0 1 .5 .7 3 3 0 0 1 .2 1 1.48 1.48 0 0 1 -.1 .7c-.1.2-.1.4-.2.6s-.2.3-.3.5l-.4.4-2.4 2.1h3.5v1.5h-5.5v-1.7h-.1"/><path d="m309.7 22.6h-3.5v-1.4l3.2-4.9h1.8v4.9h1v1.4h-1v1.6h-1.6v-1.6h.1m0-4.1l-1.8 2.7h1.8v-2.7"/><path d="M318.9,17.8h-3.2V19a1.48,1.48,0,0,1,.7-0.1,3.6,3.6,0,0,1,1.1.2,4.05,4.05,0,0,1,.9.5,5.55,5.55,0,0,1,.6.8,2,2,0,0,1,.2,1.1,5,5,0,0,1-.2,1.2,2.84,2.84,0,0,1-.6.9,8.79,8.79,0,0,1-1,.6,5,5,0,0,1-1.2.2,2.86,2.86,0,0,1-1.7-.5,2.38,2.38,0,0,1-1-1.5l1.8-.4a1,1,0,0,0,.4.7,0.91,0.91,0,0,0,.7.3,1.4,1.4,0,0,0,.9-0.3,1.22,1.22,0,0,0,.3-0.9,0.85,0.85,0,0,0-.2-0.6,0.78,0.78,0,0,0-.4-0.4,1.42,1.42,0,0,0-.6-0.2c-0.2,0-.4-0.1-0.7-0.1a2,2,0,0,0-.8.1c-0.3.1-.6,0.1-0.8,0.2l0.1-4.4H319l-0.1,1.4"/><path d="M323.6,19.1a0.37,0.37,0,0,0,.3-0.1h0.3a3,3,0,0,1,1,.2,2.1,2.1,0,0,1,1.3,1.3,3.55,3.55,0,0,1,.2,1,3.59,3.59,0,0,1-.2,1.1,4.7,4.7,0,0,1-.6.9l-0.9.6a3.7,3.7,0,0,1-2.4,0,1.46,1.46,0,0,1-.9-0.6,1.46,1.46,0,0,1-.6-0.9,4.25,4.25,0,0,1-.2-1.1,2.2,2.2,0,0,1,.1-0.8c0.1-.2.1-0.5,0.2-0.7l0.3-.6a2.09,2.09,0,0,1,.4-0.6l1.7-2.7h2.1l-2.1,3m1.3,2.5a1,1,0,0,0-.4-0.9,1.27,1.27,0,0,0-.9-0.4,1,1,0,0,0-.9.4,1.27,1.27,0,0,0-.4.9,1,1,0,0,0,.4.9,1.27,1.27,0,0,0,.9.4,1,1,0,0,0,.9-0.4,1.22,1.22,0,0,0,.4-0.9"/><path d="M331.9,17.8H328V16.3h5.8v1.5l-3.2,6.5h-2l3.3-6.5"/><path d="m376.9 22h-.9v-1h1.1l.2-1.4h-.9v-1h1.1l.3-2.3h1.1l-.3 2.3h1.1l.3-2.3h1.1l-.3 2.3h.9v1h-1.1l-.2 1.4h.9v1h-1.1l-.3 2.3h-1.1l.3-2.3h-1.1l-.3 2.3h-1.1l.3-2.3m2.5-2.5h-1.1l-.2 1.4h1.1l.2-1.4"/><path d="m385.1 19.4h1a2.27 2.27 0 0 0 .4 -.1 .85 .85 0 0 0 .3 -.3 .75 .75 0 0 0 .1 -.5 .86 .86 0 0 0 -.3 -.6 .84 .84 0 0 0 -.7 -.2 1.45 1.45 0 0 0 -.7 .2 .55 .55 0 0 0 -.3 .5l-1.9-.4a3.55 3.55 0 0 1 .4 -.9 3.39 3.39 0 0 1 .6 -.6 1.91 1.91 0 0 1 .8 -.3c.3 0 .6-.1 1-.1a3.08 3.08 0 0 1 1 .1 3.55 3.55 0 0 1 .9 .4 4.35 4.35 0 0 1 .6 .7 3 3 0 0 1 .2 1 2 2 0 0 1 -.3 1.1 1.7 1.7 0 0 1 -1 .6 1.07 1.07 0 0 1 .6 .2c.1.1.3.2.5.4l.3.6a1.48 1.48 0 0 1 .1 .7 3 3 0 0 1 -.2 1 4.35 4.35 0 0 1 -.6 .7 3.55 3.55 0 0 1 -.9 .4 3.75 3.75 0 0 1 -1.1 .1 3.45 3.45 0 0 1 -1.8 -.5 2.06 2.06 0 0 1 -1 -1.6l1.8-.4a1.61 1.61 0 0 0 .4 .7 1.08 1.08 0 0 0 .8 .2 1 1 0 0 0 .8 -.3 .91 .91 0 0 0 .3 -.7 .75 .75 0 0 0 -.1 -.5 1.38 1.38 0 0 0 -.4 -.3 .9 .9 0 0 0 -.5 -.1h-1l-.1-1.2"/><path d="m390.4 22.4l3.1-2.8a2.36 2.36 0 0 0 .5 -.5 .73 .73 0 0 0 .2 -.6 .6 .6 0 0 0 -.3 -.6 1.45 1.45 0 0 0 -.7 -.2 .78 .78 0 0 0 -.7 .3 1.49 1.49 0 0 0 -.3 .7l-1.7-.1a2 2 0 0 1 .3 -1.1 2.41 2.41 0 0 1 .6 -.8 1.93 1.93 0 0 1 .9 -.5 3.59 3.59 0 0 1 1.1 -.2 3 3 0 0 1 1 .2 5.94 5.94 0 0 1 .8 .4 1.79 1.79 0 0 1 .5 .7 3 3 0 0 1 .2 1 1.48 1.48 0 0 1 -.1 .7c-.1.2-.1.4-.2.6s-.2.3-.3.5l-.4.4-2.4 2.1h3.5v1.5h-5.5v-1.7h-.1"/><path d="m400.8 22.6h-3.5v-1.4l3.2-4.9h1.8v4.9h1v1.4h-1v1.6h-1.6v-1.6h.1m0-4.1l-1.8 2.7h1.8v-2.7"/><path d="M410.1,17.8h-3.2V19a1.48,1.48,0,0,1,.7-0.1,3.6,3.6,0,0,1,1.1.2,4.05,4.05,0,0,1,.9.5,5.55,5.55,0,0,1,.6.8,2,2,0,0,1,.2,1.1,5,5,0,0,1-.2,1.2,2.84,2.84,0,0,1-.6.9,8.79,8.79,0,0,1-1,.6,5,5,0,0,1-1.2.2,2.86,2.86,0,0,1-1.7-.5,2.38,2.38,0,0,1-1-1.5l1.8-.4a1,1,0,0,0,.4.7,0.91,0.91,0,0,0,.7.3,1.4,1.4,0,0,0,.9-0.3,1.22,1.22,0,0,0,.3-0.9,0.85,0.85,0,0,0-.2-0.6,0.78,0.78,0,0,0-.4-0.4,1.42,1.42,0,0,0-.6-0.2c-0.2,0-.4-0.1-0.7-0.1a2,2,0,0,0-.8.1c-0.3.1-.6,0.1-0.8,0.2l0.1-4.4h4.8l-0.1,1.4"/><path d="M414.7,19.1A0.37,0.37,0,0,0,415,19h0.3a3,3,0,0,1,1,.2,2.1,2.1,0,0,1,1.3,1.3,3.55,3.55,0,0,1,.2,1,3.59,3.59,0,0,1-.2,1.1,4.7,4.7,0,0,1-.6.9l-0.9.6a3.7,3.7,0,0,1-2.4,0,1.46,1.46,0,0,1-.9-0.6,1.46,1.46,0,0,1-.6-0.9,4.25,4.25,0,0,1-.2-1.1,2.2,2.2,0,0,1,.1-0.8c0.1-.2.1-0.5,0.2-0.7l0.3-.6a2.09,2.09,0,0,1,.4-0.6l1.7-2.7h2.1l-2.1,3m1.4,2.5a1,1,0,0,0-.4-0.9,1.27,1.27,0,0,0-.9-0.4,1,1,0,0,0-.9.4,1.27,1.27,0,0,0-.4.9,1,1,0,0,0,.4.9,1.27,1.27,0,0,0,.9.4,1,1,0,0,0,.9-0.4,1.8,1.8,0,0,0,.4-0.9"/><path d="m423 17.8h-3.9v-1.5h5.8v1.5l-3.2 6.5h-2l3.3-6.5"/></g></g></svg>