<svg xmlns="http://www.w3.org/2000/svg" viewBox="0 0 32 27.7" enable-background="new 0 0 32 27.7"><g fill="#cd2c28"><path d="m24.4 6.7c-1.2 0-2.4.3-3.4.8v-7.5h-4.2v14.3c0 4.2 3.4 7.6 7.6 7.6 4.2 0 7.6-3.4 7.6-7.6 0-4.2-3.4-7.6-7.6-7.6m0 11c-1.9 0-3.4-1.5-3.4-3.4 0-1.9 1.5-3.4 3.4-3.4 1.9 0 3.4 1.5 3.4 3.4 0 1.9-1.5 3.4-3.4 3.4"/><path d="m14.9 18.1c0-.1-.1-.2-.1-.3-.2-.8-.3-1.6-.3-2.4v-9.7h-4.2v7.3c-.8-.3-1.7-.5-2.7-.5-4.2 0-7.6 3.4-7.6 7.6 0 4.2 3.4 7.6 7.6 7.6 2.6 0 4.9-1.3 6.2-3.3 1.3 1.4 2.9 2.5 4.7 3.3l2.1-3.7c-2.7-.9-4.9-3.2-5.7-5.9m-7.3 5.4c-1.9 0-3.4-1.5-3.4-3.4 0-1.9 1.5-3.4 3.4-3.4 1.9 0 3.4 1.5 3.4 3.4 0 1.9-1.5 3.4-3.4 3.4"/></g></svg>