<?xml version="1.0" encoding="utf-8"?>
<!-- Generator: Adobe Illustrator 18.1.1, SVG Export Plug-In . SVG Version: 6.00 Build 0)  -->
<svg version="1.1" id="logo" xmlns="http://www.w3.org/2000/svg" xmlns:xlink="http://www.w3.org/1999/xlink" x="0px" y="0px"
	 viewBox="0 0 32 27.7" style="enable-background:new 0 0 32 27.7;" xml:space="preserve">
<style type="text/css">
	.st0{fill:#CD2C28;}
</style>
<path id="b" class="st0" d="M24.4,6.7c-1.2,0-2.4,0.3-3.4,0.8V0h-4.2v14.3c0,4.2,3.4,7.6,7.6,7.6c4.2,0,7.6-3.4,7.6-7.6
	C32,10.1,28.6,6.7,24.4,6.7 M24.4,17.7c-1.9,0-3.4-1.5-3.4-3.4c0-1.9,1.5-3.4,3.4-3.4c1.9,0,3.4,1.5,3.4,3.4
	C27.8,16.2,26.3,17.7,24.4,17.7"/>
<path id="d" class="st0" d="M14.9,18.1c0-0.1-0.1-0.2-0.1-0.3c-0.2-0.8-0.3-1.6-0.3-2.4V5.7h-4.2V13c-0.8-0.3-1.7-0.5-2.7-0.5
	c-4.2,0-7.6,3.4-7.6,7.6c0,4.2,3.4,7.6,7.6,7.6c2.6,0,4.9-1.3,6.2-3.3c1.3,1.4,2.9,2.5,4.7,3.3l2.1-3.7v0
	C17.9,23.1,15.7,20.8,14.9,18.1 M7.6,23.5c-1.9,0-3.4-1.5-3.4-3.4c0-1.9,1.5-3.4,3.4-3.4c1.9,0,3.4,1.5,3.4,3.4
	C11,22,9.5,23.5,7.6,23.5"/>
</svg>
