<svg xmlns="http://www.w3.org/2000/svg" viewBox="0 0 21.61 21.08" width="22" height="22"><path d="M162 350.57a10.81 10.81 0 0 0 -3.42 21.06 .54 .54 0 0 0 .74 -.52c0-.26 0-.94 0-1.84-3 .65-3.64-1.45-3.64-1.45a2.86 2.86 0 0 0 -1.2 -1.58c-1-.67.07-.66.07-.66a2.27 2.27 0 0 1 1.66 1.11 2.3 2.3 0 0 0 3.14 .9 2.31 2.31 0 0 1 .69 -1.44c-2.4-.27-4.92-1.2-4.92-5.34a4.18 4.18 0 0 1 1.11 -2.9 3.89 3.89 0 0 1 .11 -2.86s.91-.29 3 1.11a10.24 10.24 0 0 1 5.41 0c2.06-1.4 3-1.11 3-1.11a3.88 3.88 0 0 1 .11 2.86 4.17 4.17 0 0 1 1.11 2.9c0 4.15-2.53 5.06-4.93 5.33a2.58 2.58 0 0 1 .73 2c0 1.44 0 2.61 0 3a.54 .54 0 0 0 .74 .52A10.81 10.81 0 0 0 162 350.57" transform="translate(-151.19-350.57)" fill="#333" fill-rule="evenodd"/></svg>