<?xml version="1.0" encoding="utf-8"?>
<!-- Generator: Adobe Illustrator 20.0.0, SVG Export Plug-In . SVG Version: 6.00 Build 0)  -->
<svg version="1.1" id="Layer_1" xmlns="http://www.w3.org/2000/svg" xmlns:xlink="http://www.w3.org/1999/xlink" x="0px" y="0px"
	 viewBox="0 0 13 14" style="enable-background:new 0 0 13 14;" xml:space="preserve">
<style type="text/css">
	.st0{fill:#FBB03B;}
</style>
<path class="st0" d="M12,13.8c0,0.1-0.1,0.2-0.2,0.2H1.2C1.1,14,1,13.9,1,13.8v-0.5C1,13.1,1.1,13,1.2,13h10.5
	c0.1,0,0.2,0.1,0.2,0.2V13.8z M6.5,10.3c0,0.5,0.3,1.3,0.5,1.8l0,0l0,0c-2.2-1-4-2.4-4-5c0-3,3.5-3.3,3.5-5.2C6.5,1.2,6.2,0.5,6,0
	l0,0l0,0c2.2,1,4,2.4,4,5C10,8,6.5,8.3,6.5,10.3z"/>
</svg>
